<svg width="35" height="35" viewBox="0 0 35 35" fill="none" xmlns="http://www.w3.org/2000/svg">
<g clip-path="url(#clip0_19_22)">
<path d="M22.6008 8.01754C20.6782 8.43144 18.8757 10.1319 17.5668 10.1319C16.2578 10.1319 14.4551 8.43144 12.5327 8.01754C8.45467 7.48402 2.66602 10.3332 2.66602 19.0926C2.66602 27.8516 9.00875 35 11.7274 35C14.7477 35 15.1504 33.5904 17.5668 33.5904C19.9831 33.5904 20.3858 35 23.4061 35C26.1248 35 32.4675 27.8516 32.4675 19.0926C32.4675 10.3332 26.6789 7.48402 22.6008 8.01754Z" fill="url(#paint0_radial_19_22)"/>
<path d="M24.678 8.0349C23.9621 7.93396 23.259 7.93129 22.6008 8.01754C20.6784 8.43143 18.8757 10.1319 17.5668 10.1319C17.5336 10.1319 17.4997 10.13 17.4658 10.1279V12.2596L19.2493 12.592L31.5241 14.8807L24.678 8.0349Z" fill="url(#paint1_linear_19_22)"/>
<path d="M22.6008 8.01754C20.6782 8.43144 18.8758 10.1319 17.5668 10.1319C17.4998 10.1319 17.4311 10.1263 17.3615 10.1177C17.6504 10.8085 17.9484 11.2969 18.0547 11.4625C18.0523 11.4732 18.0493 11.4838 18.0466 11.4948L18.1444 11.5541L31.5409 24.9445C32.1151 23.1316 32.4675 21.1567 32.4675 19.0926C32.4675 10.3332 26.6789 7.48402 22.6008 8.01754Z" fill="url(#paint2_linear_19_22)"/>
<path d="M18.0954 11.5244C18.0954 11.5244 11.9465 2.55066 25.5199 0.0181575C26.0863 -0.0873189 26.6334 0.276374 26.7621 0.837936C27.3811 3.53813 28.1293 10.9033 18.0954 11.5244Z" fill="url(#paint3_linear_19_22)"/>
<path d="M26.7621 0.837936C26.6908 0.526581 26.4906 0.276375 26.23 0.13298C21.7329 5.0367 18.0955 11.5244 18.0955 11.5244C28.1293 10.9033 27.3811 3.53813 26.7621 0.837936Z" fill="url(#paint4_linear_19_22)"/>
<path d="M24.5215 4.16378C24.4166 4.20116 24.3087 4.23107 24.2024 4.26178C24.0964 4.29302 23.991 4.324 23.8841 4.3491C23.7779 4.3766 23.6671 4.38862 23.5581 4.40277C23.4492 4.41612 23.3469 4.4463 23.2481 4.49223C23.1504 4.53949 23.0545 4.59103 22.9584 4.65538C23.0382 4.52747 23.118 4.39983 23.1976 4.27166L23.595 3.65109C23.7266 3.44307 23.8695 3.2452 24.0043 3.03932C24.2807 2.63317 24.5704 2.24037 24.8882 1.86573L24.8107 1.78188L24.5269 2.02648L24.384 2.14985C24.3376 2.19204 24.2946 2.23663 24.2497 2.27989C24.0753 2.4572 23.8906 2.62943 23.7258 2.81502C23.3835 3.17844 23.0614 3.55736 22.7365 3.9352C22.6758 4.00944 22.6152 4.08394 22.5546 4.15817C22.5549 4.07833 22.549 3.99902 22.5306 3.91972C22.506 3.8129 22.479 3.70449 22.4681 3.59554C22.4547 3.48633 22.4473 3.37685 22.4398 3.26656C22.4318 3.15628 22.4224 3.04466 22.4214 2.93331C22.4083 2.70874 22.4166 2.48417 22.4182 2.25239L22.3567 2.23717C22.2569 2.44732 22.1722 2.66682 22.1068 2.89299C22.0726 3.00594 22.0465 3.1205 22.019 3.23612C21.9976 3.35201 21.976 3.4687 21.9607 3.5862C21.9445 3.70369 21.921 3.82225 21.9031 3.94188C21.8876 4.06151 21.8924 4.1814 21.9223 4.29836C21.9284 4.32133 21.9351 4.34429 21.942 4.36726C22.0182 4.61586 21.9631 4.88636 21.8032 5.09117L21.8003 5.09518C21.5215 5.45193 21.2515 5.81375 20.9791 6.17477C20.9767 6.06262 20.965 5.95688 20.9484 5.8522C20.9297 5.74486 20.8961 5.64365 20.8451 5.54646C20.7946 5.44926 20.7412 5.35126 20.7036 5.24818C20.6632 5.14591 20.6288 5.04177 20.5938 4.93683C20.5586 4.83189 20.5217 4.72641 20.4926 4.6188C20.4237 4.40491 20.3754 4.18514 20.3193 3.96057L20.2558 3.96111C20.2117 4.18942 20.1847 4.42307 20.1778 4.65858C20.1732 4.77634 20.1767 4.89384 20.1789 5.01267C20.1871 5.13016 20.1954 5.24872 20.2101 5.36621C20.2237 5.48424 20.2307 5.60467 20.2432 5.7251C20.2582 5.84446 20.2929 5.95955 20.3511 6.06556C20.3775 6.11176 20.4058 6.15768 20.4365 6.20255C20.5871 6.42017 20.5701 6.71284 20.4082 6.92219C20.2691 7.1019 20.1292 7.28134 19.9914 7.46185C19.8165 7.69043 19.6536 7.92702 19.5003 8.16948C19.4963 8.07282 19.4856 7.98069 19.4712 7.88937C19.4528 7.78175 19.4192 7.68082 19.3682 7.58335C19.3174 7.48615 19.2643 7.38815 19.2264 7.28508C19.186 7.18308 19.1516 7.07867 19.1166 6.97372C19.0814 6.86905 19.0445 6.76331 19.0154 6.65596C18.9465 6.4418 18.8982 6.22204 18.8421 5.99747L18.7786 5.998C18.7345 6.22631 18.7075 6.46023 18.7009 6.69548C18.696 6.81324 18.6995 6.931 18.7019 7.04956C18.7099 7.16705 18.7182 7.28561 18.7329 7.40337C18.7465 7.52113 18.7535 7.64156 18.766 7.76199C18.7812 7.88162 18.8157 7.99671 18.8742 8.10246C18.9332 8.20686 19.0021 8.30833 19.0891 8.39939C19.1887 8.5038 19.2143 8.65761 19.1481 8.78578C18.9767 9.1177 18.6715 9.72012 18.5313 10.0518C18.3396 10.5148 18.1639 10.9877 18.0466 11.4948L18.1444 11.5538C18.5404 11.2184 18.8862 10.8534 19.2157 10.479C19.5439 10.1038 19.8525 9.71745 20.1447 9.32064C20.15 9.3137 20.1551 9.30676 20.1602 9.29955C20.2547 9.17164 20.4219 9.13132 20.569 9.1914C20.6774 9.23573 20.7887 9.2627 20.8996 9.28085C21.0189 9.29875 21.1388 9.29154 21.2563 9.2643C21.3735 9.23439 21.4889 9.19914 21.6043 9.17111C21.7196 9.14414 21.8336 9.11102 21.9469 9.07791C22.059 9.03919 22.1706 9.00154 22.2793 8.95641C22.4977 8.86856 22.7079 8.76228 22.9068 8.64185L22.8855 8.58231C22.6553 8.60741 22.4326 8.63785 22.2077 8.64746C22.0969 8.65734 21.985 8.65921 21.8745 8.66268C21.7639 8.66615 21.6542 8.66989 21.5444 8.66749C21.4347 8.66749 21.3241 8.65147 21.2155 8.63758C21.1065 8.62343 21 8.6269 20.8929 8.64666C20.777 8.66989 20.6614 8.6998 20.542 8.74386C20.6814 8.52676 20.8136 8.30486 20.9386 8.07842C21.0368 7.89658 21.1722 7.65305 21.2918 7.43942C21.4189 7.21218 21.6772 7.08508 21.9322 7.13795C22.0569 7.16385 22.1842 7.17106 22.2993 7.18975C22.419 7.20791 22.5389 7.2007 22.6561 7.1732C22.7736 7.14329 22.8889 7.10831 23.0043 7.08027C23.1196 7.0533 23.2337 7.01992 23.3466 6.98708C23.4588 6.94809 23.5704 6.91071 23.6793 6.86531C23.8978 6.77746 24.1077 6.67145 24.3069 6.55102L24.2852 6.4912C24.055 6.5163 23.8323 6.54701 23.6078 6.55663C23.4967 6.56651 23.3848 6.56838 23.2743 6.57158C23.164 6.57505 23.054 6.57879 22.9442 6.57639C22.8345 6.57665 22.7242 6.56036 22.6152 6.54675C22.5065 6.53259 22.4 6.53606 22.2927 6.55556C22.0884 6.59641 21.8854 6.65676 21.6598 6.78627C21.9135 6.36623 22.1642 5.94299 22.4243 5.52723L22.4339 5.51094C22.5864 5.25433 22.8665 5.09197 23.1642 5.1096C23.2484 5.11467 23.3317 5.11173 23.4134 5.10426C23.5335 5.09171 23.6478 5.05486 23.7546 4.99905C23.8606 4.94057 23.9637 4.87782 24.0681 4.82174C24.1733 4.76673 24.2753 4.70612 24.3765 4.64577C24.4753 4.58008 24.5742 4.51599 24.6681 4.44496C24.8577 4.30504 25.0345 4.14963 25.1969 3.98354L25.1613 3.93093C24.9445 4.01291 24.7365 4.09836 24.5215 4.16378Z" fill="url(#paint5_linear_19_22)"/>
<path d="M18.3021 12.3506C18.0394 12.3728 17.7686 12.3848 17.4931 12.3848C17.2984 12.3848 17.1077 12.3792 16.9197 12.3672C16.8965 11.0318 16.7502 9.39301 16.3096 7.75425C16.0476 6.77826 15.681 5.8012 15.1731 4.8877C14.3141 3.344 13.4449 2.7042 13.4358 2.69779C13.1279 2.47482 13.0561 2.04437 13.2761 1.73462C13.4975 1.42593 13.9242 1.35117 14.2348 1.5696C14.3611 1.65825 16.6311 3.30982 17.7243 7.68322C18.0514 8.98739 18.2728 10.5321 18.3021 12.3506Z" fill="url(#paint6_linear_19_22)"/>
<path d="M4.08044 26.3181C6.1104 31.4637 9.81516 35 11.7273 35C14.7477 35 15.1504 33.5904 17.5667 33.5904C19.9831 33.5904 20.3858 35 23.4061 35C25.3183 35 29.0231 31.4637 31.053 26.3181H4.08044Z" fill="url(#paint7_linear_19_22)"/>
<path d="M22.9092 10.706C22.7102 10.8542 22.506 10.9797 22.2963 11.0905C22.0827 11.196 21.8686 11.2918 21.648 11.3725C21.209 11.5367 20.7559 11.6542 20.2995 11.7471C19.3857 11.9314 18.4535 12.0091 17.5211 12.0099C16.5905 12.0064 15.6553 11.9306 14.7424 11.7466C14.2849 11.6558 13.8345 11.533 13.3947 11.3706C13.1722 11.2932 12.9607 11.1933 12.7458 11.0897C12.6427 11.0326 12.5346 10.9786 12.4358 10.9113C12.329 10.8521 12.2363 10.7762 12.1327 10.706C12.271 10.9447 12.4529 11.1589 12.6582 11.3506L21.526 20.2181C21.734 20.4443 21.9778 20.6424 22.2339 20.8133C22.6558 21.0953 23.118 21.314 23.5944 21.4819C24.5509 21.8165 25.5589 21.9642 26.5659 21.9661C27.5707 21.9645 28.5822 21.8147 29.5371 21.4801C30.0127 21.3094 30.4762 21.0966 30.8976 20.8133C31.316 20.5313 31.7051 20.1818 31.954 19.7511L22.9092 10.706Z" fill="url(#paint8_linear_19_22)"/>
<path d="M22.9092 10.706C22.66 11.137 22.2712 11.4862 21.8528 11.7685C21.4312 12.0515 20.9676 12.2644 20.492 12.435C19.5371 12.7699 18.5259 12.9197 17.5211 12.921C16.5141 12.9191 15.5058 12.7715 14.5493 12.4369C14.0729 12.2692 13.6107 12.0502 13.1888 11.7685C12.7693 11.4886 12.3818 11.1362 12.1327 10.706C12.2363 10.7762 12.329 10.8521 12.4358 10.9113C12.5346 10.9786 12.6427 11.0326 12.7458 11.0897C12.9607 11.1933 13.1722 11.2932 13.3947 11.3706C13.8345 11.533 14.2849 11.6558 14.7424 11.7466C15.6553 11.9306 16.5905 12.0064 17.5211 12.0099C18.4535 12.0091 19.3857 11.9314 20.2995 11.7471C20.7559 11.6542 21.209 11.5367 21.648 11.3725C21.8686 11.2918 22.0827 11.196 22.2963 11.0905C22.506 10.9797 22.7102 10.8542 22.9092 10.706Z" fill="url(#paint9_linear_19_22)"/>
<path d="M20.1895 18.0501C20.1895 13.0171 16.5849 8.93692 12.1383 8.93692C7.69178 8.93692 4.08716 13.0171 4.08716 18.0501C4.08716 23.0833 7.69178 27.1632 12.1383 27.1632C16.5849 27.1632 20.1895 23.0833 20.1895 18.0501Z" fill="url(#paint10_linear_19_22)"/>
</g>
<defs>
<radialGradient id="paint0_radial_19_22" cx="0" cy="0" r="1" gradientUnits="userSpaceOnUse" gradientTransform="translate(5.89262 8.75095) scale(30.8424 30.8424)">
<stop stop-color="#FF4B3E"/>
<stop offset="0.4462" stop-color="#FD4A3D"/>
<stop offset="0.6069" stop-color="#F64939"/>
<stop offset="0.7215" stop-color="#EB4533"/>
<stop offset="0.8141" stop-color="#DA412A"/>
<stop offset="0.8935" stop-color="#C43A1F"/>
<stop offset="0.9625" stop-color="#A93311"/>
<stop offset="1" stop-color="#972E07"/>
</radialGradient>
<linearGradient id="paint1_linear_19_22" x1="24.1326" y1="12.3108" x2="22.4426" y2="6.4373" gradientUnits="userSpaceOnUse">
<stop stop-color="#FF1D25" stop-opacity="0"/>
<stop offset="1" stop-color="#FF1D25"/>
</linearGradient>
<linearGradient id="paint2_linear_19_22" x1="25.742" y1="14.1482" x2="19.9294" y2="3.96054" gradientUnits="userSpaceOnUse">
<stop stop-color="#972E07" stop-opacity="0"/>
<stop offset="1" stop-color="#582707"/>
</linearGradient>
<linearGradient id="paint3_linear_19_22" x1="21.1786" y1="5.07379" x2="27.9644" y2="10.2275" gradientUnits="userSpaceOnUse">
<stop stop-color="#ACC130"/>
<stop offset="1" stop-color="#97A03B"/>
</linearGradient>
<linearGradient id="paint4_linear_19_22" x1="25.1589" y1="7.49496" x2="19.2704" y2="4.22033" gradientUnits="userSpaceOnUse">
<stop stop-color="#97A03B" stop-opacity="0"/>
<stop offset="1" stop-color="#575C55"/>
</linearGradient>
<linearGradient id="paint5_linear_19_22" x1="20.1308" y1="5.56432" x2="21.7793" y2="6.92851" gradientUnits="userSpaceOnUse">
<stop stop-color="#97A03B"/>
<stop offset="1" stop-color="#6C7D47"/>
</linearGradient>
<linearGradient id="paint6_linear_19_22" x1="13.1486" y1="6.91458" x2="18.3022" y2="6.91458" gradientUnits="userSpaceOnUse">
<stop stop-color="#C08552"/>
<stop offset="1" stop-color="#895738"/>
</linearGradient>
<linearGradient id="paint7_linear_19_22" x1="17.5667" y1="30.0107" x2="17.5667" y2="41.715" gradientUnits="userSpaceOnUse">
<stop stop-color="#972E07" stop-opacity="0"/>
<stop offset="1" stop-color="#582707"/>
</linearGradient>
<linearGradient id="paint8_linear_19_22" x1="23.2514" y1="17.8402" x2="17.4039" y2="5.1991" gradientUnits="userSpaceOnUse">
<stop stop-color="#972E07" stop-opacity="0"/>
<stop offset="1" stop-color="#582707"/>
</linearGradient>
<linearGradient id="paint9_linear_19_22" x1="17.5209" y1="10.0377" x2="17.5209" y2="13.2796" gradientUnits="userSpaceOnUse">
<stop stop-color="#972E07" stop-opacity="0"/>
<stop offset="1" stop-color="#582707"/>
</linearGradient>
<linearGradient id="paint10_linear_19_22" x1="10.9423" y1="17.244" x2="-4.88927" y2="6.57296" gradientUnits="userSpaceOnUse">
<stop offset="0.0013" stop-color="#E7EEED" stop-opacity="0"/>
<stop offset="0.7731" stop-color="#F9FBFA" stop-opacity="0.772549"/>
<stop offset="1" stop-color="white"/>
</linearGradient>
<clipPath id="clip0_19_22">
<rect width="35" height="35" fill="white"/>
</clipPath>
</defs>
</svg>
