<svg width="40" height="40" viewBox="0 0 40 40" fill="none" xmlns="http://www.w3.org/2000/svg">
<ellipse cx="19.258" cy="19.2183" rx="19.258" ry="19.2183" fill="#DEDEE8"/>
<mask id="mask0_59_496" style="mask-type:alpha" maskUnits="userSpaceOnUse" x="0" y="0" width="40" height="40">
<path d="M20 40C31.0457 40 40 31.0457 40 20C40 8.9543 31.0457 0 20 0C8.9543 0 0 8.9543 0 20C0 31.0457 8.9543 40 20 40Z" fill="#F26060"/>
</mask>
<g mask="url(#mask0_59_496)">
</g>
<mask id="mask1_59_496" style="mask-type:alpha" maskUnits="userSpaceOnUse" x="0" y="0" width="40" height="40">
<path d="M20 40C31.0457 40 40 31.0457 40 20C40 8.9543 31.0457 0 20 0C8.9543 0 0 8.9543 0 20C0 31.0457 8.9543 40 20 40Z" fill="#F26060"/>
</mask>
<g mask="url(#mask1_59_496)">
</g>
<mask id="mask2_59_496" style="mask-type:alpha" maskUnits="userSpaceOnUse" x="0" y="0" width="39" height="39">
<path d="M19.258 38.4367C29.8939 38.4367 38.5159 29.8323 38.5159 19.2183C38.5159 8.60434 29.8939 0 19.258 0C8.62209 0 0 8.60434 0 19.2183C0 29.8323 8.62209 38.4367 19.258 38.4367Z" fill="#F26060"/>
</mask>
<g mask="url(#mask2_59_496)">
<path d="M10.8119 34.8225C10.8119 34.8225 8.35003 32.7382 9.80645 29.3357C11.2629 25.9333 15.5178 25.4308 19.6143 25.4296C25.8639 25.4279 33.329 27.5922 28.3487 34.8215C28.3487 34.8225 22.1482 38.9488 10.8119 34.8225Z" fill="#FF9A40"/>
<path d="M16.9768 30.7485C16.9373 30.7484 16.8988 30.7357 16.8669 30.7123C16.8349 30.6889 16.8112 30.6559 16.799 30.618C16.3421 29.1945 15.0817 28.2991 15.0684 28.2901C15.0288 28.2612 15.0021 28.2178 14.9939 28.1693C14.9857 28.1208 14.9967 28.071 15.0246 28.0305C15.0524 27.9901 15.0949 27.9623 15.143 27.953C15.191 27.9437 15.2407 27.9538 15.2815 27.981C16.1403 28.6163 16.7923 29.4938 17.1548 30.5024C17.1624 30.5259 17.1652 30.5507 17.1632 30.5754C17.1612 30.6 17.1544 30.624 17.1432 30.646C17.1319 30.668 17.1165 30.6876 17.0977 30.7036C17.079 30.7196 17.0573 30.7317 17.0339 30.7392C17.0154 30.7452 16.9962 30.7483 16.9768 30.7485Z" fill="#E96D17"/>
<path d="M19.6289 33.2782C19.5975 33.2782 19.5667 33.2703 19.5392 33.2551C19.5116 33.24 19.4883 33.2181 19.4714 33.1915C17.8412 30.6361 12.9892 29.8962 12.9408 29.8892C12.8917 29.882 12.8475 29.8554 12.8178 29.8154C12.7882 29.7754 12.7756 29.7252 12.7827 29.6758C12.7899 29.6265 12.8162 29.582 12.856 29.5521C12.8957 29.5223 12.9456 29.5096 12.9947 29.5168C13.2008 29.5472 18.063 30.2888 19.7856 32.9883C19.8037 33.0168 19.8138 33.0496 19.815 33.0833C19.8162 33.117 19.8083 33.1504 19.7922 33.1801C19.7762 33.2097 19.7525 33.2344 19.7237 33.2517C19.6948 33.2689 19.6619 33.2781 19.6284 33.2782H19.6289Z" fill="#E96D17"/>
<path d="M36.4416 41.3199H3.26514C3.26514 41.3199 3.59835 37.1556 5.60127 36.3493C6.41061 36.0235 8.2653 35.095 10.1899 34.1032C12.8788 32.7178 15.7032 31.2102 15.9907 31.056L16.0148 31.0428L16.2683 31.1005C16.5855 31.172 16.9039 31.2333 17.2234 31.2842C17.5392 31.3355 17.8559 31.3768 18.1735 31.4083C19.929 31.582 21.701 31.4591 23.4162 31.0448L23.4242 31.0428C23.4242 31.0428 25.5942 32.1682 28.014 33.3937C28.3235 33.5504 28.6376 33.71 28.9515 33.8675C31.0903 34.9446 33.2315 35.9977 34.105 36.3493C36.1076 37.1556 36.4416 41.3199 36.4416 41.3199Z" fill="#FF9A40"/>
<path d="M21.3931 36.0191C19.8685 36.0158 18.3627 35.6815 16.9783 35.039C15.984 34.5943 15.0681 33.9898 14.2667 33.2492C14.2504 33.2329 14.2375 33.2135 14.2287 33.1922C14.2199 33.1709 14.2154 33.1481 14.2153 33.125C14.2153 33.0784 14.2336 33.0336 14.2663 33.0006C14.299 32.9676 14.3434 32.949 14.3897 32.949C14.4361 32.9489 14.4805 32.9674 14.5133 33.0003C15.291 33.712 16.1765 34.2943 17.1365 34.7254C19.2899 35.7244 21.7223 35.9362 24.0143 35.3244C24.0592 35.3127 24.1069 35.3193 24.1469 35.343C24.1869 35.3666 24.2159 35.4053 24.2276 35.4504C24.2392 35.4956 24.2326 35.5436 24.2091 35.5838C24.1856 35.6241 24.1472 35.6533 24.1023 35.665C23.2179 35.8988 22.3074 36.0178 21.3931 36.0191Z" fill="#E96D17"/>
<path d="M20.5333 37.7124C19.8834 37.7108 19.2355 37.6417 18.5997 37.5062C18.5772 37.5015 18.5559 37.4924 18.537 37.4794C18.518 37.4664 18.5018 37.4498 18.4892 37.4305C18.4767 37.4112 18.468 37.3895 18.4637 37.3669C18.4595 37.3442 18.4597 37.3209 18.4644 37.2983C18.4691 37.2757 18.4781 37.2542 18.491 37.2352C18.504 37.2161 18.5205 37.1998 18.5397 37.1871C18.5589 37.1745 18.5804 37.1658 18.6029 37.1615C18.6254 37.1572 18.6486 37.1574 18.6711 37.1621C22.1207 37.8869 24.2775 36.3648 24.2988 36.3495C24.3173 36.3354 24.3385 36.3253 24.3611 36.3195C24.3836 36.3138 24.407 36.3127 24.43 36.3163C24.453 36.3198 24.475 36.3279 24.4948 36.3401C24.5147 36.3523 24.5319 36.3684 24.5454 36.3874C24.559 36.4063 24.5687 36.4279 24.5739 36.4506C24.5791 36.4734 24.5797 36.497 24.5757 36.5201C24.5717 36.5431 24.5632 36.5651 24.5507 36.5848C24.5381 36.6045 24.5218 36.6215 24.5027 36.6347C24.4282 36.6902 22.9769 37.7124 20.5333 37.7124Z" fill="#E96D17"/>
<path d="M23.5931 31.8932C23.5931 31.8932 22.9423 33.9512 19.9529 33.9512C16.4657 33.9512 15.6448 32.0803 15.6448 32.0803C15.918 31.3563 16.1358 30.6124 16.2965 29.855C16.4967 28.9431 16.5903 28.0107 16.5753 27.0768L22.7015 26.8335C22.7583 27.3554 22.8505 27.97 22.9544 28.5883C23.2325 30.2292 23.5931 31.8932 23.5931 31.8932Z" fill="#FFB8A1"/>
<path d="M22.9569 28.5883C22.0076 29.2527 19.932 30.2418 16.2971 29.8563C16.4974 28.9441 16.591 28.0115 16.576 27.0774L22.7039 26.834C22.7615 27.3546 22.8536 27.9694 22.9569 28.5883Z" fill="#3F2037"/>
<path d="M14.2388 19.0382C14.2388 19.0382 12.3425 16.4408 10.8673 17.978C9.39213 19.5152 12.237 24.869 14.8183 23.7028L14.2388 19.0382Z" fill="#FFB8A1"/>
<path d="M13.334 22.1071C13.3024 22.107 13.2719 22.0955 13.2481 22.0746C13.2242 22.0537 13.2087 22.0249 13.2043 21.9934C12.955 20.1888 11.5296 19.0811 11.5151 19.0702C11.4874 19.049 11.4693 19.0177 11.4646 18.9831C11.4599 18.9485 11.4691 18.9134 11.4901 18.8856C11.5111 18.8578 11.5422 18.8395 11.5766 18.8348C11.611 18.83 11.6459 18.8393 11.6735 18.8604C12.6241 19.6396 13.2604 20.7404 13.4634 21.9571C13.4681 21.9918 13.459 22.0269 13.4381 22.0548C13.4171 22.0826 13.386 22.101 13.3516 22.1059C13.3458 22.1067 13.3399 22.1071 13.334 22.1071Z" fill="#FF8A8A"/>
<path d="M12.937 20.8107C12.9156 20.8108 12.8944 20.8055 12.8755 20.7953C12.8565 20.7852 12.8404 20.7705 12.8284 20.7526C12.6381 20.4695 12.0687 20.4405 11.8662 20.4532C11.8487 20.455 11.8309 20.4533 11.814 20.448C11.7972 20.4428 11.7815 20.4341 11.7681 20.4226C11.7546 20.4112 11.7436 20.3971 11.7356 20.3812C11.7277 20.3653 11.723 20.348 11.7219 20.3303C11.7208 20.3125 11.7233 20.2948 11.7292 20.278C11.7351 20.2613 11.7443 20.2459 11.7562 20.2328C11.7681 20.2197 11.7826 20.2092 11.7987 20.2018C11.8147 20.1945 11.8321 20.1905 11.8498 20.1901C11.8858 20.1877 12.7329 20.1402 13.0454 20.6051C13.0587 20.6249 13.0665 20.648 13.0678 20.6719C13.0691 20.6958 13.0639 20.7196 13.0527 20.7407C13.0416 20.7619 13.0249 20.7796 13.0045 20.7919C12.9842 20.8042 12.9608 20.8107 12.937 20.8107Z" fill="#FF8A8A"/>
<path d="M25.7878 19.0382C25.7878 19.0382 27.6843 16.4408 29.1593 17.978C30.6343 19.5152 27.7898 24.869 25.2083 23.7028L25.7878 19.0382Z" fill="#FFB8A1"/>
<path d="M26.6922 22.107C26.6861 22.1075 26.6801 22.1075 26.674 22.107C26.657 22.1047 26.6406 22.099 26.6257 22.0902C26.6109 22.0815 26.5979 22.0698 26.5875 22.056C26.5771 22.0422 26.5696 22.0265 26.5652 22.0097C26.5609 21.993 26.5599 21.9755 26.5623 21.9583C26.7652 20.7416 27.4015 19.6408 28.3522 18.8616C28.3658 18.8504 28.3815 18.842 28.3984 18.837C28.4154 18.8319 28.4331 18.8304 28.4506 18.8325C28.4681 18.8345 28.4851 18.8401 28.5004 18.8489C28.5157 18.8577 28.5291 18.8695 28.5398 18.8836C28.5505 18.8977 28.5582 18.9139 28.5625 18.9311C28.5669 18.9483 28.5677 18.9662 28.565 18.9837C28.5623 19.0012 28.5561 19.018 28.5468 19.0331C28.5375 19.0482 28.5253 19.0612 28.5109 19.0714C28.4963 19.0824 27.0702 20.1939 26.8216 21.9946C26.817 22.0258 26.8014 22.0543 26.7776 22.075C26.7539 22.0956 26.7236 22.107 26.6922 22.107Z" fill="#FF8A8A"/>
<path d="M27.0894 20.8107C27.0656 20.8107 27.0423 20.8041 27.0219 20.7918C27.0015 20.7794 26.9849 20.7617 26.9737 20.7405C26.9626 20.7194 26.9574 20.6956 26.9587 20.6717C26.96 20.6477 26.9677 20.6246 26.9811 20.6048C27.2933 20.1402 28.1406 20.1879 28.1767 20.1911C28.2103 20.1946 28.2413 20.211 28.2632 20.237C28.2851 20.263 28.2961 20.2965 28.294 20.3304C28.2919 20.3644 28.2768 20.3963 28.252 20.4193C28.2271 20.4424 28.1943 20.4549 28.1605 20.4542C27.9568 20.442 27.3877 20.4714 27.198 20.7538C27.1859 20.7714 27.1696 20.7858 27.1507 20.7958C27.1318 20.8057 27.1108 20.8108 27.0894 20.8107Z" fill="#FF8A8A"/>
<path d="M21.6117 11.4683C16.3081 10.1661 11.5076 14.9905 12.7039 20.3492C13.5483 24.1322 15.4005 28.9029 19.9524 29.0112C24.696 29.1236 26.5998 23.9259 27.2771 19.9828C27.5801 18.2341 27.2491 16.434 26.3443 14.9101C25.4395 13.3862 24.021 12.2399 22.347 11.6797C22.1073 11.6009 21.8622 11.5304 21.6117 11.4683Z" fill="#FFB8A1"/>
<path d="M20.3314 23.6139C20.0736 23.6063 19.8201 23.5457 19.5865 23.4358C19.5493 23.4195 19.5184 23.3915 19.4984 23.356C19.4784 23.3205 19.4704 23.2794 19.4757 23.2389L19.855 20.3074C19.8581 20.2828 19.8659 20.2591 19.8782 20.2377C19.8904 20.2162 19.9067 20.1973 19.9262 20.1822C19.9457 20.1671 19.9679 20.156 19.9917 20.1495C20.0154 20.143 20.0402 20.1414 20.0646 20.1446C20.089 20.1478 20.1126 20.1558 20.1339 20.1682C20.1552 20.1805 20.1739 20.197 20.1888 20.2167C20.2038 20.2363 20.2148 20.2588 20.2211 20.2827C20.2274 20.3066 20.229 20.3315 20.2258 20.3561L19.8651 23.143C20.0056 23.2129 20.1612 23.2463 20.3178 23.24C20.4744 23.2338 20.627 23.1881 20.7615 23.1072C20.7819 23.0932 20.8048 23.0834 20.8289 23.0784C20.853 23.0733 20.8779 23.0731 20.9021 23.0778C20.9263 23.0825 20.9494 23.0919 20.97 23.1056C20.9906 23.1192 21.0082 23.1369 21.022 23.1574C21.0358 23.178 21.0454 23.2011 21.0503 23.2254C21.0551 23.2497 21.0552 23.2748 21.0504 23.2991C21.0456 23.3235 21.0361 23.3466 21.0224 23.3672C21.0086 23.3878 20.991 23.4055 20.9705 23.4192C20.7823 23.5483 20.5592 23.6163 20.3314 23.6139Z" fill="#FF8A8A"/>
<path d="M19.9852 25.5456C19.3268 25.5422 18.6778 25.3873 18.0879 25.0929C18.0455 25.0681 18.0144 25.0276 18.0013 24.98C17.9883 24.9324 17.9944 24.8815 18.0183 24.8384C18.0422 24.7953 18.082 24.7633 18.1291 24.7495C18.1762 24.7356 18.2268 24.7409 18.2701 24.7643C18.3608 24.8147 20.4305 25.9369 22.2218 24.2695C22.2399 24.2527 22.261 24.2397 22.284 24.2311C22.3071 24.2226 22.3315 24.2187 22.3561 24.2196C22.3806 24.2206 22.4047 24.2264 22.427 24.2367C22.4493 24.2471 22.4694 24.2617 22.4861 24.2799C22.5028 24.298 22.5157 24.3193 22.5242 24.3424C22.5327 24.3656 22.5366 24.3903 22.5357 24.415C22.5347 24.4396 22.5289 24.4639 22.5187 24.4863C22.5084 24.5088 22.4938 24.529 22.4758 24.5458C21.8058 25.1913 20.9128 25.5498 19.9852 25.5456Z" fill="#FF8A8A"/>
<path d="M20.288 26.6205C20.0223 26.62 19.758 26.5825 19.5024 26.5093C19.4551 26.4945 19.4156 26.4613 19.3925 26.4171C19.3695 26.3729 19.3648 26.3213 19.3796 26.2737C19.3943 26.2261 19.4273 26.1863 19.4712 26.1631C19.5151 26.1399 19.5664 26.1352 19.6137 26.1501C19.6219 26.1527 20.4511 26.4044 21.0342 26.0727C21.0774 26.0481 21.1285 26.0418 21.1763 26.0552C21.2241 26.0685 21.2646 26.1004 21.2891 26.1439C21.3135 26.1873 21.3197 26.2387 21.3065 26.2868C21.2932 26.3349 21.2615 26.3757 21.2183 26.4003C20.9321 26.5526 20.6118 26.6284 20.288 26.6205Z" fill="#FF8A8A"/>
<path d="M16.3414 18.2645C16.8272 17.9892 17.3548 17.7965 17.9029 17.6942C17.9748 17.6845 18.0436 17.6588 18.1043 17.619C18.1651 17.5792 18.2162 17.5262 18.2541 17.464C18.2919 17.4018 18.3155 17.3319 18.3231 17.2594C18.3308 17.1868 18.3222 17.1135 18.2982 17.0447L18.2769 16.9853C18.2404 16.8821 18.1704 16.7943 18.0783 16.7359C17.9862 16.6775 17.8772 16.6521 17.7689 16.6635C17.2591 16.718 16.3559 16.8977 15.7665 17.4886C15.704 17.5518 15.66 17.631 15.6392 17.7177C15.6184 17.8043 15.6217 17.8951 15.6487 17.98C15.6701 18.0486 15.7062 18.1116 15.7546 18.1645C15.803 18.2174 15.8624 18.259 15.9286 18.2861C15.9947 18.3133 16.066 18.3255 16.1374 18.3217C16.2087 18.318 16.2784 18.2984 16.3414 18.2645Z" fill="#3F2037"/>
<path d="M24.0767 18.2645C23.591 17.9892 23.0634 17.7965 22.5152 17.6942C22.4434 17.6845 22.3746 17.6588 22.3138 17.619C22.2531 17.5792 22.2019 17.5262 22.1641 17.464C22.1262 17.4018 22.1026 17.3319 22.095 17.2593C22.0874 17.1868 22.0959 17.1135 22.12 17.0447L22.141 16.9853C22.1776 16.8821 22.2475 16.7943 22.3397 16.7359C22.4318 16.6776 22.5407 16.6521 22.649 16.6635C23.1588 16.718 24.0622 16.8977 24.6514 17.4886C24.7139 17.5518 24.7579 17.631 24.7787 17.7177C24.7995 17.8043 24.7962 17.8951 24.7692 17.98C24.7479 18.0486 24.7117 18.1116 24.6634 18.1645C24.615 18.2174 24.5556 18.2589 24.4895 18.2861C24.4234 18.3133 24.3521 18.3254 24.2807 18.3217C24.2094 18.318 24.1397 18.2984 24.0767 18.2645Z" fill="#3F2037"/>
<g opacity="0.5">
<g opacity="0.5">
<path opacity="0.5" d="M17.7112 21.6458C17.7112 22.1083 16.8646 22.4814 15.8202 22.4814C14.7758 22.4814 13.9294 22.1073 13.9294 21.6458C13.9294 21.1844 14.776 20.8106 15.8202 20.8106C16.8644 20.8106 17.7112 21.1846 17.7112 21.6458Z" fill="#FF8A8A"/>
</g>
</g>
<g opacity="0.5">
<g opacity="0.5">
<path opacity="0.5" d="M26.6047 21.6458C26.6047 22.1083 25.7582 22.4814 24.714 22.4814C23.6698 22.4814 22.8232 22.1073 22.8232 21.6458C22.8232 21.1844 23.6698 20.8106 24.714 20.8106C25.7582 20.8106 26.6047 21.1846 26.6047 21.6458Z" fill="#FF8A8A"/>
</g>
</g>
<path d="M12.9009 21.1736C12.9009 21.1736 11.9046 15.6504 12.2127 14.3885C12.5208 13.1267 13.1635 13.3571 13.1635 13.3571C13.1635 13.3571 7.79071 8.9264 10.4627 6.41492C12.3972 4.59688 14.6218 8.48697 14.6218 8.48697C14.6218 8.48697 13.5211 4.66257 15.0871 4.13726C17.0392 3.4825 17.9223 8.06604 17.9223 8.06604C17.9223 8.06604 17.7613 4.64579 19.3478 4.71416C21.5483 4.80783 20.3085 7.36457 22.6944 8.3624C25.0804 9.36022 28.6853 9.8668 27.3856 13.889C27.3856 13.889 29.136 13.8121 26.9583 20.9899C26.3957 20.2035 26.1144 19.2486 26.1603 18.2808C26.1961 17.5382 26.1922 16.6779 26.0409 16.1492C26.0409 16.1492 24.6775 15.1907 24.7394 13.7876C24.7394 13.7876 19.9364 16.6562 15.5052 14.0995C15.5052 14.0995 15.784 15.7521 14.3895 16.0015C14.0699 16.8372 13.8665 17.7132 13.7849 18.6049C13.7006 19.4921 13.4126 20.3474 12.9437 21.1035L12.9009 21.1736Z" fill="#3F2037"/>
<path d="M26.9409 11.3664C26.9409 11.3664 27.6999 8.75933 28.926 9.42643C29.8011 9.90272 27.7623 11.8863 27.7623 11.8863C27.7623 11.8863 29.4775 10.9534 30.3235 11.6107C31.1696 12.2681 28.9243 13.045 27.6303 12.8228C26.3362 12.6006 26.9409 11.3664 26.9409 11.3664Z" fill="#3F2037"/>
<path d="M17.8426 19.7008C17.8513 20.2104 17.6645 20.6256 17.4253 20.631C17.1861 20.6363 16.9851 20.2255 16.9764 19.7159C16.9677 19.2062 17.1542 18.7896 17.3934 18.7854C17.6326 18.7813 17.8336 19.1912 17.8426 19.7008Z" fill="#3F2037"/>
<path d="M22.3682 19.7008C22.3593 20.2104 22.546 20.6256 22.7852 20.631C23.0244 20.6363 23.2254 20.2255 23.2344 19.7159C23.2433 19.2062 23.0564 18.7896 22.8171 18.7854C22.5779 18.7813 22.3769 19.1912 22.3682 19.7008Z" fill="#3F2037"/>
<path d="M15.0043 36.0844V41.3214H14.6304V36.0844C14.6304 36.0345 14.6501 35.9866 14.6851 35.9513C14.7202 35.9161 14.7678 35.8962 14.8173 35.8962C14.8669 35.8962 14.9145 35.9161 14.9496 35.9513C14.9846 35.9866 15.0043 36.0345 15.0043 36.0844Z" fill="white"/>
<path d="M25.3959 36.0843V41.3213H25.022V36.0843C25.0227 36.0403 25.0389 35.9979 25.0675 35.9646C25.0962 35.9313 25.1356 35.9092 25.1788 35.9022C25.222 35.8951 25.2663 35.9036 25.304 35.9261C25.3416 35.9486 25.3702 35.9836 25.3848 36.0252C25.392 36.0441 25.3957 36.0641 25.3959 36.0843Z" fill="white"/>
</g>
</svg>
