<svg width="44" height="44" viewBox="0 0 44 44" fill="none" xmlns="http://www.w3.org/2000/svg">
<mask id="mask0_29_34" style="mask-type:alpha" maskUnits="userSpaceOnUse" x="0" y="0" width="44" height="44">
<circle cx="22" cy="22" r="22" fill="#DEDEE8"/>
</mask>
<g mask="url(#mask0_29_34)">
<circle opacity="0.1" cx="22" cy="22" r="22" fill="#6A8071"/>
<path d="M15.0551 40.2865C15.0551 40.2865 9.77551 41.3482 9.55237 36.9024C9.45588 34.9783 9.1964 35.2792 7.51392 33.6566C5.83145 32.034 5.83145 31.3732 6.19226 29.8709C6.55307 28.3686 8.06792 27.8525 7.3192 26.4643C6.3328 24.636 6.63524 21.5105 8.77853 20.2922C10.8505 19.1143 11.0837 19.1302 11.0837 17.9224C11.0837 16.345 12.7215 13.8032 16.1005 14.0676C19.0082 14.2947 18.5555 12.8805 20.6162 12.2505C24.453 11.0771 26.3121 14.4002 27.634 14.5205C28.9559 14.6407 31.2435 14.663 32.4046 16.4199C33.8445 18.5989 32.5724 20.3772 34.3752 20.5574C36.1779 20.7376 37.9807 22.3 37.9205 23.9225C37.8604 25.5451 36.8989 26.9269 37.5599 27.6481C38.221 28.3693 38.4772 32.6398 35.8098 33.4572C32.1647 34.574 35.8098 39.9702 29.1059 39.8702C23.0789 39.7799 15.0551 40.2865 15.0551 40.2865Z" fill="#3F2037"/>
<path d="M36.7361 44.4376H6.51404C6.51404 44.4376 6.81758 40.6669 8.64236 39.9378C9.01969 39.7867 9.64748 39.4922 10.4057 39.1206C10.5105 39.0688 10.6185 39.016 10.7279 38.9615H10.7301C10.9237 38.8657 11.1235 38.7659 11.3295 38.6624C12.7994 37.9254 14.5282 37.028 15.8743 36.3231L16.3283 36.0854C17.3953 35.5246 18.1286 35.1347 18.1286 35.1347L18.3594 35.1864C20.5077 35.6677 22.7377 35.65 24.8781 35.1347C24.8781 35.1347 25.6387 35.5263 26.7425 36.0887C26.7566 36.0962 26.7703 36.103 26.7846 36.1107C27.4507 36.4506 28.2384 36.8509 29.0592 37.2634C31.2635 38.3734 33.6958 39.5744 34.608 39.9394C36.4332 40.6669 36.7361 44.4376 36.7361 44.4376Z" fill="#0075CF"/>
<path d="M21.9247 42.4252C21.2761 42.4257 20.6301 42.3438 20.0021 42.1816C19.2515 41.9995 18.5383 41.688 17.8947 41.261C17.8764 41.2486 17.8607 41.2325 17.8487 41.2139C17.8367 41.1953 17.8286 41.1744 17.8248 41.1525C17.821 41.1307 17.8217 41.1083 17.8267 41.0867C17.8318 41.0651 17.8412 41.0448 17.8543 41.0269C17.8673 41.009 17.8839 40.9939 17.9029 40.9825C17.922 40.9712 17.9431 40.9638 17.9651 40.9607C17.9871 40.9577 18.0094 40.9591 18.0308 40.9649C18.0522 40.9708 18.0722 40.9808 18.0897 40.9945C18.7051 41.397 19.3847 41.6915 20.0993 41.8655C21.7821 42.2859 23.5578 42.1211 25.1346 41.3983C25.1546 41.3884 25.1764 41.3827 25.1987 41.3814C25.2211 41.3802 25.2434 41.3836 25.2644 41.3912C25.2853 41.3989 25.3046 41.4107 25.3208 41.426C25.3371 41.4413 25.3501 41.4598 25.3591 41.4803C25.368 41.5007 25.3727 41.5228 25.3729 41.5451C25.3731 41.5675 25.3687 41.5896 25.3601 41.6102C25.3514 41.6308 25.3387 41.6495 25.3227 41.665C25.3066 41.6806 25.2876 41.6927 25.2667 41.7007C24.2155 42.1729 23.0771 42.4197 21.9247 42.4252V42.4252Z" fill="#0056A8"/>
<path d="M26.7433 36.0876C26.3869 37.6374 25.2377 40.5323 21.6251 40.5323C17.7796 40.5323 16.6429 37.4443 16.3284 36.084C17.3954 35.5232 18.1287 35.1333 18.1287 35.1333L18.3595 35.1851C20.5078 35.6663 22.7378 35.6486 24.8782 35.1333C24.8782 35.1333 25.6395 35.5252 26.7433 36.0876Z" fill="#FFB8A1"/>
<path d="M12.5902 44.4376H6.51404C6.51404 44.4376 6.81758 40.6669 8.64236 39.9378C9.01969 39.7866 9.64748 39.4921 10.4057 39.1205C10.5105 39.0688 10.6185 39.0159 10.7279 38.9615H10.7301C10.9237 38.8656 11.1235 38.7659 11.3295 38.6624C11.7842 39.9285 12.5373 42.3269 12.5902 44.4376Z" fill="#FFB8A1"/>
<path d="M30.6615 44.4376H36.7361C36.7361 44.4376 36.4325 40.6669 34.608 39.9378C34.2304 39.7866 33.6029 39.4921 32.8447 39.1205C32.7395 39.0687 32.632 39.0157 32.5222 38.9615H32.52C32.3264 38.8656 32.1266 38.7659 31.9206 38.6624C31.4673 39.9285 30.7141 42.3269 30.6615 44.4376Z" fill="#FFB8A1"/>
<path d="M25.033 35.9032C25.033 35.9032 24.4402 37.7663 21.7167 37.7663C18.5401 37.7663 17.7925 36.0726 17.7925 36.0726C18.0416 35.4171 18.2404 34.7436 18.3872 34.0579V34.0579C18.5696 33.2323 18.6549 32.3882 18.6414 31.5428L24.2221 31.3225C24.2737 31.795 24.3576 32.3515 24.4526 32.9112C24.7043 34.3967 25.033 35.9032 25.033 35.9032Z" fill="#FFB8A1"/>
<path d="M24.4522 32.9107C23.5874 33.5121 21.6972 34.4073 18.3868 34.0584C18.5692 33.2328 18.6545 32.3887 18.641 31.5432L24.2218 31.323C24.2733 31.7941 24.3566 32.3506 24.4522 32.9107Z" fill="#3F2037"/>
<path d="M27.4361 24.5824C27.4361 24.5824 28.7434 22.803 29.7604 23.8554C30.7775 24.9079 28.8161 28.5766 27.0365 27.7777L27.4361 24.5824Z" fill="#FFB8A1"/>
<path d="M26.8957 27.7424C26.3589 28.002 25.9327 28.445 25.6939 28.9914C25.4552 29.5378 25.4197 30.1515 25.5938 30.7218C25.768 31.2921 26.1403 31.7812 26.6436 32.101C27.1468 32.4208 27.7479 32.5501 28.3381 32.4655C28.9283 32.3809 29.4689 32.0881 29.8621 31.6399C30.2553 31.1917 30.4753 30.6176 30.4823 30.0214C30.4894 29.4252 30.283 28.8461 29.9004 28.3887C29.5178 27.9313 28.9843 27.6259 28.3963 27.5274C28.2828 27.5081 28.1681 27.4969 28.0531 27.4939C28.0613 27.3978 28.0813 27.303 28.1125 27.2118C28.302 27.2202 28.4901 27.2483 28.6738 27.2957C29.3148 27.4597 29.8763 27.8468 30.2577 28.3874C30.6391 28.9281 30.8154 29.5869 30.7549 30.2458C30.6945 30.9046 30.4013 31.5204 29.9279 31.9826C29.4545 32.4448 28.8319 32.7233 28.1718 32.768C27.5117 32.8127 26.8573 32.6207 26.3259 32.2265C25.7945 31.8323 25.421 31.2617 25.2723 30.617C25.1235 29.9723 25.2094 29.2957 25.5144 28.7086C25.8195 28.1215 26.3237 27.6623 26.9367 27.4133L26.8957 27.7424Z" fill="#FFF7F1"/>
<path d="M27.9621 26.6853C27.9579 26.6857 27.9537 26.6857 27.9495 26.6853C27.9258 26.682 27.9044 26.6695 27.8899 26.6504C27.8755 26.6313 27.8692 26.6073 27.8724 26.5836C28.0123 25.7499 28.4508 24.9957 29.106 24.4616C29.1251 24.447 29.1492 24.4406 29.173 24.4438C29.1968 24.4469 29.2184 24.4594 29.233 24.4785C29.2476 24.4976 29.254 24.5216 29.2508 24.5455C29.2477 24.5693 29.2352 24.5909 29.2161 24.6055C28.6026 25.1137 28.1898 25.8236 28.0515 26.6082C28.0484 26.6297 28.0376 26.6493 28.0212 26.6635C28.0048 26.6776 27.9838 26.6854 27.9621 26.6853V26.6853Z" fill="#FF8A8A"/>
<path d="M28.2359 25.7974C28.2195 25.7973 28.2034 25.7928 28.1894 25.7843C28.1754 25.7759 28.1639 25.7638 28.1562 25.7493C28.1485 25.7348 28.1449 25.7185 28.1457 25.7022C28.1466 25.6858 28.1519 25.67 28.161 25.6564C28.3764 25.3379 28.9606 25.37 28.9853 25.372C29.0092 25.3735 29.0316 25.3844 29.0474 25.4023C29.0633 25.4203 29.0714 25.4438 29.07 25.4677C29.0685 25.4916 29.0576 25.514 29.0396 25.5299C29.0217 25.5458 28.9982 25.5539 28.9742 25.5524C28.8337 25.544 28.4414 25.5643 28.3108 25.7575C28.3025 25.7697 28.2913 25.7798 28.2783 25.7867C28.2652 25.7937 28.2507 25.7973 28.2359 25.7974V25.7974Z" fill="#FF8A8A"/>
<path d="M16.0961 24.5824C16.0961 24.5824 14.7888 22.803 13.7717 23.8554C12.7547 24.9079 14.7161 28.5766 16.4957 27.7777L16.0961 24.5824Z" fill="#FFB8A1"/>
<path d="M16.4506 27.4133C17.0635 27.6623 17.5677 28.1215 17.8726 28.7086C18.1776 29.2956 18.2634 29.9721 18.1147 30.6168C17.966 31.2614 17.5925 31.8319 17.0612 32.2261C16.5298 32.6202 15.8755 32.8122 15.2154 32.7675C14.5554 32.7228 13.9329 32.4444 13.4595 31.9822C12.9862 31.5201 12.693 30.9044 12.6325 30.2456C12.572 29.5868 12.7483 28.928 13.1296 28.3874C13.5109 27.8468 14.0724 27.4598 14.7133 27.2957C14.897 27.2484 15.0852 27.2202 15.2747 27.2118C15.306 27.303 15.326 27.3978 15.3342 27.4939C15.2191 27.4969 15.1043 27.5081 14.9908 27.5274C14.4027 27.6259 13.8692 27.9313 13.4867 28.3887C13.1041 28.8461 12.8977 29.4252 12.9047 30.0214C12.9117 30.6176 13.1317 31.1917 13.525 31.6399C13.9182 32.0881 14.4587 32.3809 15.049 32.4655C15.6392 32.5501 16.2402 32.4208 16.7435 32.101C17.2467 31.7812 17.6191 31.2921 17.7932 30.7218C17.9674 30.1515 17.9319 29.5378 17.6931 28.9914C17.4544 28.445 17.0281 28.002 16.4913 27.7424L16.4506 27.4133Z" fill="#FFF7F1"/>
<path d="M16.4506 27.4133C17.0635 27.6623 17.5677 28.1215 17.8726 28.7086C18.1776 29.2956 18.2634 29.9721 18.1147 30.6168C17.966 31.2614 17.5925 31.8319 17.0612 32.2261C16.5298 32.6202 15.8755 32.8122 15.2154 32.7675C14.5554 32.7228 13.9329 32.4444 13.4595 31.9822C12.9862 31.5201 12.693 30.9044 12.6325 30.2456C12.572 29.5868 12.7483 28.928 13.1296 28.3874C13.5109 27.8468 14.0724 27.4598 14.7133 27.2957C14.897 27.2484 15.0852 27.2202 15.2747 27.2118C15.306 27.303 15.326 27.3978 15.3342 27.4939C15.2191 27.4969 15.1043 27.5081 14.9908 27.5274C14.4027 27.6259 13.8692 27.9313 13.4867 28.3887C13.1041 28.8461 12.8977 29.4252 12.9047 30.0214C12.9117 30.6176 13.1317 31.1917 13.525 31.6399C13.9182 32.0881 14.4587 32.3809 15.049 32.4655C15.6392 32.5501 16.2402 32.4208 16.7435 32.101C17.2467 31.7812 17.6191 31.2921 17.7932 30.7218C17.9674 30.1515 17.9319 29.5378 17.6931 28.9914C17.4544 28.445 17.0281 28.002 16.4913 27.7424L16.4506 27.4133Z" fill="#FFF7F1"/>
<path d="M15.5706 26.6853C15.5747 26.6857 15.5789 26.6857 15.5831 26.6853C15.6068 26.682 15.6283 26.6695 15.6427 26.6504C15.6572 26.6313 15.6635 26.6073 15.6602 26.5836C15.5204 25.7499 15.0819 24.9957 14.4267 24.4616C14.4076 24.447 14.3835 24.4406 14.3597 24.4438C14.3359 24.4469 14.3143 24.4594 14.2997 24.4785C14.2851 24.4976 14.2786 24.5216 14.2818 24.5455C14.285 24.5693 14.2974 24.5909 14.3165 24.6055C14.93 25.1137 15.3428 25.8236 15.4811 26.6082C15.4843 26.6297 15.495 26.6493 15.5114 26.6635C15.5279 26.6776 15.5489 26.6854 15.5706 26.6853V26.6853Z" fill="#FF8A8A"/>
<path d="M15.2968 25.7974C15.3132 25.7973 15.3292 25.7928 15.3433 25.7843C15.3573 25.7759 15.3688 25.7638 15.3764 25.7493C15.3841 25.7348 15.3877 25.7185 15.3869 25.7022C15.3861 25.6858 15.3808 25.67 15.3717 25.6564C15.1562 25.3379 14.5721 25.37 14.5474 25.372C14.5235 25.3735 14.5011 25.3844 14.4852 25.4023C14.4693 25.4203 14.4612 25.4438 14.4627 25.4677C14.4642 25.4916 14.4751 25.514 14.493 25.5299C14.511 25.5458 14.5345 25.5539 14.5584 25.5524C14.6989 25.544 15.0913 25.5643 15.2219 25.7575C15.2302 25.7697 15.2413 25.7798 15.2544 25.7867C15.2674 25.7937 15.282 25.7973 15.2968 25.7974Z" fill="#FF8A8A"/>
<path d="M28.0986 24.8706C28.0043 28.4922 26.0379 33.3954 21.716 33.2929C17.892 33.2033 15.993 29.5744 15.5307 26.2641C15.4919 25.9848 15.463 25.7072 15.4443 25.4348C15.076 20.099 17.1975 17.3673 21.7572 17.2182C22.0132 17.2097 22.2771 17.2097 22.5489 17.2182C23.0853 17.2738 23.6177 17.3625 24.1431 17.4839C27.2932 18.5161 28.1973 21.0631 28.0986 24.8706Z" fill="#FFB8A1"/>
<g opacity="0.5">
<g opacity="0.5">
<path opacity="0.5" d="M19.5611 27.0428C19.5611 27.4613 18.7901 27.799 17.8392 27.799C16.8883 27.799 16.1171 27.4604 16.1171 27.0428C16.1171 26.6251 16.888 26.2868 17.8392 26.2868C18.7904 26.2868 19.5611 26.6253 19.5611 27.0428Z" fill="#FF8A8A"/>
</g>
</g>
<g opacity="0.5">
<g opacity="0.5">
<path opacity="0.5" d="M27.6624 27.0428C27.6624 27.4613 26.8915 27.799 25.9405 27.799C24.9896 27.799 24.2186 27.4604 24.2186 27.0428C24.2186 26.6251 24.9896 26.2868 25.9405 26.2868C26.8915 26.2868 27.6624 26.6253 27.6624 27.0428Z" fill="#FF8A8A"/>
</g>
</g>
<path d="M19.2356 20.4792C18.1152 20.5643 18.452 21.8621 17.3489 22.4965C16.1374 23.193 16.2878 23.6102 16.581 24.5865C17.0165 26.037 15.5845 26.382 15.5845 26.382C15.5664 26.3441 15.5481 26.3049 15.5307 26.2652C15.492 25.9859 15.4631 25.7084 15.4444 25.4359C15.0761 20.099 16.7815 16.9889 21.7564 17.2182C22.3741 19.5552 20.7345 20.3653 19.2356 20.4792Z" fill="#3F2037"/>
<path d="M24.1832 20.0962C25.6727 20.0724 25.1524 21.6143 26.0322 22.3236C27.1195 23.2005 27.4761 22.8278 26.9984 24.2647C26.5045 25.7504 27.9235 26.382 27.9235 26.382C27.9418 26.3441 27.9599 26.3049 27.9775 26.2652C28.016 25.9859 28.0451 25.7084 28.0638 25.4359C28.4321 20.099 26.627 17.003 21.7518 17.2182C21.1359 19.5551 22.6803 20.1199 24.1832 20.0962Z" fill="#3F2037"/>
<path d="M20.2722 22.326C19.6878 22.3394 18.4135 22.4954 17.8401 23.5567C17.8401 23.5567 19.1569 22.9311 20.2589 22.998C20.3083 23.001 20.3577 22.993 20.4037 22.9747C20.4496 22.9564 20.491 22.9281 20.5247 22.892C20.5585 22.8558 20.5839 22.8127 20.599 22.7656C20.6142 22.7185 20.6188 22.6687 20.6125 22.6196V22.6196C20.6021 22.5373 20.5615 22.4617 20.4987 22.4075C20.4358 22.3533 20.3551 22.3242 20.2722 22.326Z" fill="#3F2037"/>
<path d="M23.5076 22.326C24.092 22.3394 25.3663 22.4954 25.9395 23.5567C25.9395 23.5567 24.6227 22.9311 23.5208 22.998C23.4714 23.001 23.422 22.9931 23.376 22.9748C23.33 22.9565 23.2887 22.9282 23.2549 22.8921C23.2211 22.8559 23.1957 22.8128 23.1805 22.7657C23.1653 22.7186 23.1607 22.6687 23.1671 22.6196V22.6196C23.1774 22.5372 23.218 22.4616 23.2809 22.4074C23.3438 22.3531 23.4246 22.3241 23.5076 22.326V22.326Z" fill="#3F2037"/>
<path d="M22.0615 28.4019C21.8274 28.395 21.5972 28.3402 21.3851 28.2409C21.3522 28.2266 21.3248 28.2021 21.3071 28.1709C21.2895 28.1398 21.2824 28.1037 21.287 28.0682L21.6324 25.4149C21.6381 25.3715 21.6607 25.332 21.6955 25.3053C21.7302 25.2785 21.7741 25.2667 21.8176 25.2723C21.861 25.2779 21.9005 25.3006 21.9272 25.3353C21.954 25.3701 21.9658 25.414 21.9602 25.4575L21.6311 27.984C21.7603 28.0482 21.9035 28.0789 22.0476 28.0734C22.1917 28.0679 22.3321 28.0263 22.456 27.9525C22.474 27.9395 22.4944 27.9302 22.516 27.9252C22.5376 27.9203 22.56 27.9197 22.5818 27.9235C22.6037 27.9274 22.6245 27.9356 22.6431 27.9477C22.6617 27.9598 22.6777 27.9755 22.6901 27.9939C22.7025 28.0123 22.711 28.033 22.7153 28.0547C22.7195 28.0765 22.7193 28.0989 22.7147 28.1206C22.7101 28.1423 22.7011 28.1628 22.6884 28.181C22.6757 28.1992 22.6594 28.2146 22.6406 28.2263C22.47 28.3426 22.268 28.4039 22.0615 28.4019V28.4019Z" fill="#FF8A8A"/>
<path d="M21.7337 30.1557C21.5972 30.1557 21.4608 30.1478 21.3253 30.1322C20.8703 30.0819 20.4281 29.9498 20.0201 29.7421C19.9819 29.7207 19.9537 29.685 19.9417 29.6429C19.9297 29.6007 19.935 29.5555 19.9564 29.5173C19.9777 29.479 20.0134 29.4508 20.0556 29.4388C20.0977 29.4269 20.1429 29.4321 20.1812 29.4535V29.4535C20.2607 29.4976 22.1502 30.5183 23.786 29.005C23.8183 28.9766 23.8605 28.962 23.9035 28.9642C23.9465 28.9664 23.9869 28.9853 24.0162 29.0169C24.0454 29.0485 24.0612 29.0902 24.0601 29.1333C24.059 29.1763 24.0412 29.2172 24.0105 29.2473C23.3975 29.833 22.5815 30.1586 21.7337 30.1557Z" fill="#FF8A8A"/>
<path d="M22.0216 31.1248C21.78 31.1242 21.5397 31.0904 21.3074 31.0241C21.2662 31.0106 21.2319 30.9814 21.212 30.9428C21.1921 30.9043 21.1882 30.8594 21.2011 30.818C21.214 30.7765 21.2427 30.7418 21.281 30.7214C21.3193 30.7009 21.3641 30.6963 21.4057 30.7087C21.4149 30.7115 22.1711 30.9393 22.7035 30.6382C22.7224 30.6253 22.7438 30.6165 22.7662 30.6122C22.7887 30.608 22.8117 30.6085 22.834 30.6137C22.8563 30.6188 22.8772 30.6285 22.8955 30.6422C22.9138 30.6559 22.9291 30.6732 22.9404 30.6931C22.9517 30.7129 22.9587 30.7349 22.961 30.7576C22.9634 30.7804 22.961 30.8033 22.954 30.8251C22.947 30.8468 22.9356 30.8669 22.9205 30.884C22.9054 30.9011 22.8868 30.9149 22.8661 30.9245C22.6064 31.0626 22.3156 31.1315 22.0216 31.1248V31.1248Z" fill="#FF8A8A"/>
<path d="M19.7942 24.8649C19.8021 25.3262 19.6323 25.7019 19.4145 25.7068C19.1966 25.7116 19.0133 25.3398 19.0054 24.8786C18.9975 24.4173 19.1675 24.0402 19.3852 24.0364C19.6028 24.0327 19.7863 24.4036 19.7942 24.8649Z" fill="#3F2037"/>
<path d="M23.916 24.8649C23.9081 25.3261 24.0782 25.7019 24.2958 25.7068C24.5134 25.7116 24.6969 25.3398 24.7049 24.8785C24.7128 24.4173 24.543 24.0401 24.3251 24.0364C24.1072 24.0327 23.9251 24.4036 23.916 24.8649Z" fill="#3F2037"/>
</g>
</svg>
