<svg width="35" height="39" viewBox="0 0 35 39" fill="none" xmlns="http://www.w3.org/2000/svg">
<rect y="1.5" width="35" height="35" fill="white"/>
<g clip-path="url(#clip0_48_868)">
<path d="M30.9116 25.2643C30.9116 25.3198 30.9107 25.3763 30.9107 25.4326C30.9062 25.9117 30.8758 26.3855 30.8204 26.8529C30.6836 28.0189 30.394 29.1418 29.9721 30.2004C29.9524 30.2496 29.9328 30.2989 29.9122 30.3481C29.8916 30.3965 29.871 30.4457 29.8514 30.4949C29.8299 30.5433 29.8093 30.5925 29.7879 30.6409C29.7772 30.6641 29.7664 30.6874 29.7566 30.7116C29.7432 30.7411 29.7298 30.7707 29.7164 30.8003C29.6949 30.8477 29.6726 30.8961 29.6502 30.9444C27.8526 34.7611 24.294 37.599 20.0157 38.2984C19.9594 38.3073 19.9031 38.3163 19.8468 38.3244C19.6332 38.3557 19.4177 38.3826 19.2014 38.4041C18.817 38.4409 18.4282 38.4605 18.034 38.4632C10.8425 38.5054 5 32.6783 5 25.4837C5 25.3682 5.00178 25.2527 5.00445 25.1381C5.00623 25.0807 5.00801 25.0235 5.01068 24.9661C5.01247 24.924 5.01425 24.8819 5.01692 24.8398C5.02858 24.5962 5.04817 24.3545 5.07506 24.1144C5.08673 24.006 5.10008 23.8976 5.11442 23.7902C5.14033 23.6004 5.17069 23.4114 5.20471 23.2234C5.21539 23.1688 5.22527 23.1132 5.23685 23.0577C5.25653 22.9556 5.27799 22.8535 5.30034 22.7524C5.31013 22.7094 5.32001 22.6664 5.3307 22.6234C5.41921 22.2446 5.52561 21.872 5.64804 21.5058C5.66505 21.4539 5.68295 21.4019 5.70164 21.35C5.71598 21.307 5.73112 21.2649 5.74723 21.2219C5.77938 21.1314 5.81339 21.0418 5.84821 20.9523C5.86432 20.9093 5.88124 20.8672 5.89825 20.8251C5.92594 20.7552 5.95452 20.6854 5.98408 20.6156C6.00732 20.5601 6.03145 20.5045 6.05558 20.449C6.07971 20.3935 6.10384 20.3388 6.12886 20.2843C6.15745 20.2215 6.18701 20.1589 6.21559 20.0971C6.23794 20.0505 6.26029 20.004 6.28353 19.9574C6.31033 19.9028 6.33713 19.849 6.36402 19.7953C6.39171 19.7416 6.41851 19.6879 6.44719 19.635C6.47488 19.5813 6.50257 19.5285 6.53213 19.4756C6.56071 19.4228 6.58938 19.3699 6.61886 19.318C6.64477 19.2715 6.67157 19.2249 6.69837 19.1792C6.85571 18.9052 7.02373 18.6374 7.20163 18.376C7.22932 18.3339 7.2579 18.2918 7.28747 18.2506C7.83632 17.4616 8.47011 16.7346 9.1754 16.0808C9.43825 15.8381 9.71081 15.6053 9.99245 15.3832C14.3341 11.9605 16.3016 6.32675 15.0448 0.93753C14.9662 0.5999 15.2728 0.502314 15.4605 0.546201C15.4694 0.548877 15.4784 0.551553 15.4873 0.554229C15.4917 0.556013 15.4971 0.557797 15.5016 0.558689C15.5624 0.579295 15.6231 0.599009 15.6831 0.620506C15.8404 0.674206 15.9968 0.731562 16.1515 0.790614C16.1962 0.807652 16.2409 0.825581 16.2847 0.84253C16.3383 0.864027 16.392 0.885525 16.4447 0.907023C16.4894 0.924952 16.5332 0.942882 16.577 0.961614C16.628 0.983112 16.678 1.00461 16.7281 1.02611C16.7844 1.05028 16.8408 1.07535 16.897 1.10041C17.0258 1.15777 17.1536 1.21682 17.2805 1.27775C17.3368 1.3046 17.3932 1.33234 17.4486 1.36017C17.5559 1.41298 17.6631 1.46766 17.7695 1.52314C17.824 1.55177 17.8777 1.57952 17.9313 1.60913C17.9965 1.6441 18.0609 1.67898 18.1252 1.71573C18.5105 1.92883 18.8885 2.15897 19.2605 2.40437C19.3257 2.44736 19.3901 2.49036 19.4545 2.53424C19.9622 2.87901 20.4574 3.2533 20.9384 3.65275C20.9983 3.70199 21.0572 3.75212 21.1163 3.80234C21.3048 3.96263 21.4917 4.1265 21.6759 4.29491C21.734 4.34861 21.7921 4.4024 21.8502 4.4561C22.1497 4.73459 22.4429 5.02387 22.7308 5.32296C22.7799 5.37488 22.8299 5.42688 22.8792 5.47969C22.9418 5.54597 23.0043 5.61224 23.066 5.67941C23.1143 5.73222 23.1625 5.78512 23.2108 5.83792C23.2662 5.89885 23.3207 5.95879 23.3752 6.02061C23.436 6.08867 23.4959 6.15673 23.5558 6.22568C23.5978 6.27403 23.6399 6.32327 23.6819 6.37162C23.7409 6.44057 23.799 6.50952 23.8571 6.57848C23.9098 6.64208 23.9626 6.70479 24.0145 6.7683C24.0672 6.8319 24.12 6.89639 24.1709 6.9608C24.2201 7.02083 24.2683 7.08167 24.3157 7.14259C24.3469 7.18023 24.3765 7.21779 24.406 7.25632C24.448 7.30824 24.4891 7.36113 24.5293 7.41483C24.5633 7.45872 24.5972 7.50261 24.6303 7.5465C24.7312 7.67905 24.8305 7.8125 24.9297 7.94683C25.0298 8.08385 25.1291 8.22086 25.2265 8.35966C25.2739 8.42594 25.3194 8.49221 25.3659 8.55849C25.4133 8.62655 25.4607 8.6964 25.508 8.76535C25.5554 8.8343 25.6019 8.90415 25.6484 8.97399C25.6859 9.02859 25.7225 9.08416 25.7592 9.13964C26.4618 10.2062 27.1019 11.3292 27.6731 12.4871C27.7401 12.6232 27.8063 12.7594 27.8715 12.8964C28.1933 13.5707 28.491 14.2558 28.7645 14.948C28.7949 15.025 28.8253 15.1021 28.8548 15.1791C28.8852 15.256 28.9147 15.3331 28.9433 15.411C28.9728 15.488 29.0015 15.565 29.0301 15.6429C29.0586 15.7199 29.0873 15.797 29.115 15.8748C29.2026 16.1175 29.2876 16.3611 29.3689 16.6047C29.3912 16.6727 29.4144 16.7399 29.4359 16.808C29.4618 16.8858 29.4877 16.9638 29.5119 17.0417C29.5369 17.1204 29.5619 17.1984 29.586 17.2763C29.6522 17.4894 29.7166 17.7026 29.7773 17.9157C29.7889 17.9569 29.8005 17.9972 29.8122 18.0374C29.8292 18.0966 29.8452 18.1556 29.8622 18.2148C29.8837 18.2935 29.9052 18.3724 29.9266 18.4503C29.9472 18.5281 29.9677 18.607 29.9883 18.6849C30.0107 18.7673 30.0312 18.8496 30.0518 18.932C30.0876 19.0744 30.1224 19.2168 30.1573 19.3592C30.1779 19.4479 30.1985 19.5366 30.219 19.6252C30.2529 19.7775 30.287 19.9288 30.3191 20.0811C30.32 20.0855 30.3209 20.09 30.3218 20.0945C30.3548 20.2504 30.3862 20.4053 30.4165 20.5602C30.5229 21.1073 30.6132 21.6527 30.6856 22.1936C30.6963 22.2715 30.7062 22.3486 30.716 22.4255C30.7195 22.456 30.7231 22.4856 30.7266 22.516C30.7445 22.6575 30.7607 22.7981 30.7749 22.9386C30.7838 23.0174 30.7919 23.0963 30.799 23.1741C30.8143 23.3309 30.8285 23.4876 30.8402 23.6425C30.8517 23.7939 30.8625 23.9452 30.8714 24.0957C30.8768 24.1861 30.8821 24.2766 30.8858 24.3661C30.8893 24.4333 30.892 24.5014 30.8956 24.5685V24.573C30.8982 24.6464 30.9009 24.7198 30.9036 24.7924V24.8113C30.9053 24.8838 30.9071 24.9563 30.9089 25.0289C30.9107 25.1076 30.9116 25.1864 30.9116 25.2643Z" fill="url(#paint0_radial_48_868)"/>
<path d="M25.0433 31.1394C24.2768 34.9075 20.5849 37.4019 16.8351 36.58C13.1153 35.7647 10.773 32.0742 11.6078 28.3577C12.0371 26.4467 13.2624 24.9112 14.8554 23.9873C17.5507 22.4238 19.223 19.6476 19.6475 16.5565C19.6482 16.5513 19.649 16.549 19.6499 16.5495C24.1395 18.9909 26.0724 26.0801 25.0433 31.1394Z" fill="url(#paint1_radial_48_868)"/>
<path d="M30.9116 25.2643C30.9116 25.3198 30.9107 25.3763 30.9107 25.4326C30.9045 25.9126 30.8731 26.3873 30.8177 26.8547C30.6792 28.0206 30.3913 29.1436 29.9721 30.2004C29.9524 30.2496 29.9328 30.2989 29.9122 30.3481C29.8916 30.3965 29.871 30.4457 29.8514 30.4949C29.8299 30.5433 29.8093 30.5925 29.7879 30.6409C29.7772 30.6641 29.7664 30.6874 29.7566 30.7116C29.7432 30.7411 29.7298 30.7707 29.7164 30.8003C29.6949 30.8477 29.6726 30.8961 29.6502 30.9444C27.857 34.7664 24.3101 37.6035 20.0157 38.2984C19.9594 38.3073 19.9031 38.3163 19.8468 38.3244C19.6332 38.3566 19.4177 38.3826 19.2014 38.4041C18.817 38.4409 18.4282 38.4605 18.034 38.4632C10.8425 38.5054 5 32.6783 5 25.4837C5 25.3682 5.00178 25.2527 5.00445 25.1381C5.00623 25.0807 5.00801 25.0235 5.01068 24.9661C5.01247 24.924 5.01425 24.8819 5.01692 24.8398C5.02858 24.5962 5.04817 24.3545 5.07506 24.1144C5.08673 24.006 5.10008 23.8976 5.11442 23.7902C5.14033 23.6004 5.17069 23.4114 5.20471 23.2234C5.21539 23.1688 5.22527 23.1132 5.23685 23.0577C5.25653 22.9556 5.27799 22.8535 5.30034 22.7524C5.31013 22.7094 5.32001 22.6664 5.3307 22.6234C5.41921 22.2446 5.52561 21.872 5.64804 21.5058C5.66505 21.4539 5.68295 21.4019 5.70164 21.35C5.71598 21.307 5.73112 21.2649 5.74723 21.2219C5.77938 21.1314 5.81339 21.0418 5.84821 20.9523C5.86432 20.9093 5.88124 20.8672 5.89825 20.8251C5.92594 20.7552 5.95452 20.6854 5.98408 20.6156C6.00732 20.5601 6.03145 20.5045 6.05558 20.449C6.07971 20.3935 6.10384 20.3388 6.12886 20.2843C6.15745 20.2215 6.18701 20.1589 6.21559 20.0971C6.23794 20.0505 6.26029 20.004 6.28353 19.9574C6.31033 19.9028 6.33713 19.849 6.36402 19.7953C6.39171 19.7416 6.41851 19.6879 6.44719 19.635C6.47488 19.5813 6.50257 19.5285 6.53213 19.4756C6.56071 19.4228 6.58938 19.3699 6.61886 19.318C6.64477 19.2715 6.67157 19.2249 6.69837 19.1792C6.85571 18.9052 7.02373 18.6374 7.20163 18.376C7.22932 18.3339 7.2579 18.2918 7.28747 18.2506C7.83632 17.4616 8.47011 16.7346 9.1754 16.0808C9.43825 15.8381 9.71081 15.6053 9.99245 15.3832C14.3341 11.9605 16.3016 6.32675 15.0448 0.93753C14.9662 0.5999 15.2728 0.502314 15.4605 0.546201C15.4694 0.548877 15.4784 0.551553 15.4873 0.554229C15.4917 0.556013 15.4971 0.557797 15.5016 0.558689C15.5624 0.579295 15.6231 0.599009 15.6831 0.620506C15.8404 0.674206 15.9968 0.731562 16.1515 0.790614C16.1962 0.807652 16.2409 0.825581 16.2847 0.84253C16.3383 0.864027 16.392 0.885525 16.4447 0.907023C16.4894 0.924952 16.5332 0.942882 16.577 0.961614C16.628 0.983112 16.678 1.00461 16.7281 1.02611C16.7844 1.05028 16.8408 1.07535 16.897 1.10041C17.0258 1.15777 17.1536 1.21682 17.2805 1.27775C17.3368 1.3046 17.3932 1.33234 17.4486 1.36017C17.5559 1.41298 17.6631 1.46766 17.7695 1.52314C17.824 1.55177 17.8777 1.57952 17.9313 1.60913C17.9965 1.6441 18.0609 1.67898 18.1252 1.71573C18.5105 1.92883 18.8885 2.15897 19.2605 2.40437C19.3257 2.44736 19.3901 2.49036 19.4545 2.53424C19.9622 2.87901 20.4574 3.2533 20.9384 3.65275C20.9983 3.70199 21.0572 3.75212 21.1163 3.80234C21.3048 3.96263 21.4917 4.1265 21.6759 4.29491C21.734 4.34861 21.7921 4.4024 21.8502 4.4561C22.1497 4.73459 22.4429 5.02387 22.7308 5.32296C22.7799 5.37488 22.8299 5.42688 22.8792 5.47969C22.9418 5.54597 23.0043 5.61224 23.066 5.67941C23.1143 5.73222 23.1625 5.78512 23.2108 5.83792C23.2662 5.89885 23.3207 5.95879 23.3752 6.02061C23.436 6.08867 23.4959 6.15673 23.5558 6.22568C23.5978 6.27403 23.6399 6.32327 23.6819 6.37162C23.7409 6.44057 23.799 6.50952 23.8571 6.57848C23.9098 6.64208 23.9626 6.70479 24.0145 6.7683C24.0672 6.8319 24.12 6.89639 24.1709 6.9608C24.2201 7.02083 24.2683 7.08167 24.3157 7.14259C24.3469 7.18023 24.3765 7.21779 24.406 7.25632C24.448 7.30824 24.4891 7.36113 24.5293 7.41483C24.5633 7.45872 24.5972 7.50261 24.6303 7.5465C24.7312 7.67905 24.8305 7.8125 24.9297 7.94683C25.0298 8.08385 25.1291 8.22086 25.2265 8.35966C25.2739 8.42594 25.3194 8.49221 25.3659 8.55849C25.4133 8.62655 25.4607 8.6964 25.508 8.76535C25.5554 8.8343 25.6019 8.90415 25.6484 8.97399C25.6859 9.02859 25.7225 9.08416 25.7592 9.13964C26.4618 10.2062 27.1019 11.3292 27.6731 12.4871C27.7401 12.6232 27.8063 12.7594 27.8715 12.8964C28.1933 13.5707 28.491 14.2558 28.7645 14.948C28.7949 15.025 28.8253 15.1021 28.8548 15.1791C28.8852 15.256 28.9147 15.3331 28.9433 15.411C28.9728 15.488 29.0015 15.565 29.0301 15.6429C29.0586 15.7199 29.0873 15.797 29.115 15.8748C29.2026 16.1175 29.2876 16.3611 29.3689 16.6047C29.3912 16.6727 29.4144 16.7399 29.4359 16.808C29.4618 16.8858 29.4877 16.9638 29.5119 17.0417C29.5369 17.1204 29.5619 17.1984 29.586 17.2763C29.6522 17.4894 29.7157 17.7026 29.7773 17.9157C29.7889 17.9569 29.8005 17.9972 29.8122 18.0374C29.8292 18.0966 29.8452 18.1556 29.8622 18.2148C29.8837 18.2935 29.9052 18.3724 29.9266 18.4503C29.9472 18.5281 29.9677 18.607 29.9883 18.6849C30.0107 18.7673 30.0312 18.8496 30.0518 18.932C30.0876 19.0744 30.1224 19.2168 30.1573 19.3592C30.1779 19.4479 30.1985 19.5366 30.219 19.6252C30.2529 19.7775 30.287 19.9288 30.3191 20.0811C30.32 20.0855 30.3209 20.09 30.3218 20.0945C30.3548 20.2504 30.3862 20.4053 30.4165 20.5602C30.5229 21.1073 30.6132 21.6527 30.6856 22.1936C30.6963 22.2715 30.7062 22.3486 30.716 22.4255C30.7195 22.456 30.7231 22.4856 30.7266 22.516C30.7445 22.6575 30.7607 22.7981 30.7749 22.9386C30.7838 23.0174 30.7919 23.0963 30.799 23.1741C30.8143 23.3309 30.8285 23.4876 30.8402 23.6425C30.8517 23.7939 30.8625 23.9452 30.8714 24.0957C30.8768 24.1861 30.8821 24.2766 30.8858 24.3661C30.8893 24.4333 30.892 24.5014 30.8956 24.5685V24.573C30.8982 24.6464 30.9009 24.7198 30.9036 24.7924V24.8113C30.9053 24.8507 30.9062 24.89 30.9071 24.9294C30.908 24.9625 30.9089 24.9957 30.9089 25.0288C30.9107 25.1076 30.9116 25.1864 30.9116 25.2643Z" fill="url(#paint2_radial_48_868)"/>
<path d="M27.9665 24.5898C27.691 30.38 22.7646 34.9477 16.9894 34.5885C11.2605 34.2321 6.92275 29.2747 7.31186 23.5457C7.51202 20.5997 8.9845 18.0296 11.1452 16.2855C14.8011 13.3345 17.1654 8.447 17.0872 3.74418C17.0872 3.74383 17.0875 3.74249 17.0881 3.74026C17.1751 3.4128 17.5369 3.24126 17.8475 3.37533C24.7221 6.3413 28.3265 17.0243 27.9665 24.5898Z" fill="url(#paint3_linear_48_868)"/>
</g>
<defs>
<radialGradient id="paint0_radial_48_868" cx="0" cy="0" r="1" gradientUnits="userSpaceOnUse" gradientTransform="translate(4.34345 0.429965) scale(37.6861 37.7542)">
<stop stop-color="#FFCF42"/>
<stop offset="0.262" stop-color="#FFCD42"/>
<stop offset="0.408" stop-color="#FFC540"/>
<stop offset="0.525" stop-color="#FFB73E"/>
<stop offset="0.628" stop-color="#FFA33A"/>
<stop offset="0.72" stop-color="#FF8A35"/>
<stop offset="0.805" stop-color="#FF6A30"/>
<stop offset="0.885" stop-color="#FF4529"/>
<stop offset="0.958" stop-color="#FF1B21"/>
<stop offset="1" stop-color="#FF001C"/>
</radialGradient>
<radialGradient id="paint1_radial_48_868" cx="0" cy="0" r="1" gradientUnits="userSpaceOnUse" gradientTransform="translate(19.3612 21.0676) scale(14.1421 14.1677)">
<stop stop-color="#FFB500" stop-opacity="0"/>
<stop offset="0.109" stop-color="#FCAD01" stop-opacity="0.109"/>
<stop offset="0.281" stop-color="#F49605" stop-opacity="0.281"/>
<stop offset="0.496" stop-color="#E8710B" stop-opacity="0.496"/>
<stop offset="0.744" stop-color="#D63D13" stop-opacity="0.744"/>
<stop offset="1" stop-color="#C1001C"/>
</radialGradient>
<radialGradient id="paint2_radial_48_868" cx="0" cy="0" r="1" gradientUnits="userSpaceOnUse" gradientTransform="translate(14.5136 12.4449) scale(25.0958 25.1411)">
<stop stop-color="#F9C6A0" stop-opacity="0"/>
<stop offset="0.014" stop-color="#F9C69E" stop-opacity="0"/>
<stop offset="0.02" stop-color="#FAC797" stop-opacity="0"/>
<stop offset="0.023" stop-color="#FAC88C" stop-opacity="0"/>
<stop offset="0.026" stop-color="#FBCA7B" stop-opacity="0"/>
<stop offset="0.029" stop-color="#FDCC65" stop-opacity="0"/>
<stop offset="0.031" stop-color="#FECE4A" stop-opacity="0"/>
<stop offset="0.032" stop-color="#FFCF42" stop-opacity="0"/>
<stop offset="0.408" stop-color="#FFCD42" stop-opacity="0.389"/>
<stop offset="0.543" stop-color="#FFC640" stop-opacity="0.529"/>
<stop offset="0.64" stop-color="#FFBB3E" stop-opacity="0.628"/>
<stop offset="0.718" stop-color="#FFAA3B" stop-opacity="0.709"/>
<stop offset="0.785" stop-color="#FF9437" stop-opacity="0.778"/>
<stop offset="0.845" stop-color="#FF7832" stop-opacity="0.839"/>
<stop offset="0.898" stop-color="#FF582C" stop-opacity="0.895"/>
<stop offset="0.947" stop-color="#FF3225" stop-opacity="0.946"/>
<stop offset="0.991" stop-color="#FF091E" stop-opacity="0.991"/>
<stop offset="1" stop-color="#FF001C"/>
</radialGradient>
<linearGradient id="paint3_linear_48_868" x1="22.7579" y1="16.7345" x2="45.9592" y2="3.29005" gradientUnits="userSpaceOnUse">
<stop offset="0.0001" stop-color="#E7EEED" stop-opacity="0"/>
<stop offset="1" stop-color="#E7EEED"/>
</linearGradient>
<clipPath id="clip0_48_868">
<rect width="26" height="38" fill="white" transform="translate(5 0.5)"/>
</clipPath>
</defs>
</svg>
