<svg width="36" height="35" viewBox="0 0 36 35" fill="none" xmlns="http://www.w3.org/2000/svg">
<g clip-path="url(#clip0_19_49)">
<path d="M33.5488 21.9937C33.5488 23.3346 34.294 24.5063 35.4038 25.138C35.7486 25.3343 35.9668 25.6873 35.966 26.0758L35.9619 27.8217C35.9598 28.748 35.1858 29.4978 34.233 29.495L24.9207 29.4738C24.5454 29.473 24.1936 29.2889 23.9927 28.9806C23.3286 27.9613 22.1583 27.285 20.8259 27.285C19.5002 27.285 18.3347 27.9549 17.669 28.9655C17.4664 29.273 17.1138 29.4558 16.7382 29.455L1.72109 29.4201C0.768361 29.4174 -0.0028158 28.6649 7.72871e-06 27.7386L0.0119371 22.7628C0.0131371 22.275 0.352808 21.8545 0.836267 21.7241C2.41808 21.2975 3.57933 19.8876 3.57933 18.2141C3.57933 16.5467 2.42669 15.1409 0.854196 14.7087C0.37102 14.5759 0.0328313 14.1539 0.0340313 13.6658L0.0367136 12.6072C0.0388313 11.8513 0.560478 11.1895 1.31111 10.9923L21.339 5.71681C22.8714 5.31342 24.5042 5.49075 25.9072 6.21298L35.0817 10.9367C35.6479 11.2281 36.0013 11.7999 35.9999 12.4232L35.986 17.9031C35.985 18.2927 35.7645 18.6459 35.4178 18.8413C34.3002 19.4712 33.5488 20.6471 33.5488 21.9937Z" fill="url(#paint0_linear_19_49)"/>
<path d="M35.6399 11.3944C35.492 11.208 35.3036 11.0505 35.082 10.9364L25.9076 6.21298C24.5044 5.49054 22.8714 5.31327 21.3389 5.71687L1.31096 10.9921C1.07364 11.0546 0.859331 11.1638 0.677002 11.3073L35.6399 11.3944Z" fill="url(#paint1_linear_19_49)"/>
<path d="M8.05475 27.4224C9.86278 27.4224 11.3285 25.9974 11.3285 24.2396C11.3285 22.4817 9.86278 21.0568 8.05475 21.0568C6.24671 21.0568 4.78101 22.4817 4.78101 24.2396C4.78101 25.9974 6.24671 27.4224 8.05475 27.4224Z" fill="url(#paint2_linear_19_49)"/>
<path d="M26.8563 26.048C28.6643 26.048 30.13 24.623 30.13 22.8652C30.13 21.1074 28.6643 19.6824 26.8563 19.6824C25.0482 19.6824 23.5825 21.1074 23.5825 22.8652C23.5825 24.623 25.0482 26.048 26.8563 26.048Z" fill="url(#paint3_linear_19_49)"/>
<path d="M15.8365 18.8457C17.1408 18.8457 18.1982 17.8177 18.1982 16.5496C18.1982 15.2816 17.1408 14.2536 15.8365 14.2536C14.5322 14.2536 13.4749 15.2816 13.4749 16.5496C13.4749 17.8177 14.5322 18.8457 15.8365 18.8457Z" fill="url(#paint4_linear_19_49)"/>
<path d="M29.6903 17.4713C30.9946 17.4713 32.052 16.4433 32.052 15.1752C32.052 13.9072 30.9946 12.8792 29.6903 12.8792C28.386 12.8792 27.3286 13.9072 27.3286 15.1752C27.3286 16.4433 28.386 17.4713 29.6903 17.4713Z" fill="url(#paint5_linear_19_49)"/>
<path d="M23.5362 13.1572C25.0492 13.1572 26.2757 11.9648 26.2757 10.4938C26.2757 9.02289 25.0492 7.83046 23.5362 7.83046C22.0232 7.83046 20.7968 9.02289 20.7968 10.4938C20.7968 11.9648 22.0232 13.1572 23.5362 13.1572Z" fill="url(#paint6_linear_19_49)"/>
<path d="M15.0551 7.37196L10.3198 8.6192C10.8216 9.16849 11.5532 9.51499 12.3683 9.51499C13.6981 9.51506 14.8062 8.5938 15.0551 7.37196Z" fill="url(#paint7_linear_19_49)"/>
<path d="M2.90323 20.3008C2.41109 20.9838 1.68424 21.4954 0.836267 21.724C0.352808 21.8544 0.0131371 22.275 0.0119371 22.7628L7.72871e-06 27.7385C-0.0028158 28.6649 0.768361 29.4174 1.72109 29.4201L16.7382 29.455C17.1138 29.4559 17.4664 29.273 17.669 28.9655C18.3347 27.9548 19.5002 27.285 20.8259 27.285C22.1583 27.285 23.3286 27.9613 23.9927 28.9806C24.1935 29.2889 24.5453 29.473 24.9206 29.4738L34.2329 29.495C35.1857 29.4977 35.9597 28.748 35.9618 27.8217L35.9659 26.0758C35.9668 25.6874 35.7485 25.3344 35.4037 25.138C34.294 24.5062 33.5487 23.3345 33.5487 21.9937C33.5487 21.4113 33.6895 20.861 33.9394 20.3728L2.90323 20.3008Z" fill="url(#paint8_linear_19_49)"/>
<path d="M26.2757 10.4938C26.2757 9.02293 25.0492 7.83046 23.5362 7.83046C22.0232 7.83046 20.7968 9.02286 20.7968 10.4938C20.7968 10.7963 20.8493 11.0868 20.9449 11.3578L26.1229 11.3707C26.2215 11.096 26.2757 10.8011 26.2757 10.4938Z" fill="url(#paint9_linear_19_49)"/>
</g>
<defs>
<linearGradient id="paint0_linear_19_49" x1="7.72871e-06" y1="17.5001" x2="36" y2="17.5001" gradientUnits="userSpaceOnUse">
<stop stop-color="#FEE97D"/>
<stop offset="1" stop-color="#FE860A"/>
</linearGradient>
<linearGradient id="paint1_linear_19_49" x1="17.6734" y1="7.65704" x2="19.2782" y2="20.5876" gradientUnits="userSpaceOnUse">
<stop stop-color="#FE7701" stop-opacity="0"/>
<stop offset="0.398" stop-color="#E05915" stop-opacity="0.398"/>
<stop offset="1" stop-color="#AC2538"/>
</linearGradient>
<linearGradient id="paint2_linear_19_49" x1="10.67" y1="26.7822" x2="4.8312" y2="20.7765" gradientUnits="userSpaceOnUse">
<stop stop-color="#FEE97D"/>
<stop offset="1" stop-color="#FE860A"/>
</linearGradient>
<linearGradient id="paint3_linear_19_49" x1="29.4715" y1="25.4078" x2="23.6327" y2="19.4022" gradientUnits="userSpaceOnUse">
<stop stop-color="#FEE97D"/>
<stop offset="1" stop-color="#FE860A"/>
</linearGradient>
<linearGradient id="paint4_linear_19_49" x1="17.7231" y1="18.3839" x2="13.5112" y2="14.0515" gradientUnits="userSpaceOnUse">
<stop stop-color="#FEE97D"/>
<stop offset="1" stop-color="#FE860A"/>
</linearGradient>
<linearGradient id="paint5_linear_19_49" x1="31.5769" y1="17.0095" x2="27.3648" y2="12.6771" gradientUnits="userSpaceOnUse">
<stop stop-color="#FEE97D"/>
<stop offset="1" stop-color="#FE860A"/>
</linearGradient>
<linearGradient id="paint6_linear_19_49" x1="25.7247" y1="12.6214" x2="20.8388" y2="7.59604" gradientUnits="userSpaceOnUse">
<stop stop-color="#FEE97D"/>
<stop offset="1" stop-color="#FE860A"/>
</linearGradient>
<linearGradient id="paint7_linear_19_49" x1="14.008" y1="9.28275" x2="11.4199" y2="6.62073" gradientUnits="userSpaceOnUse">
<stop stop-color="#FEE97D"/>
<stop offset="1" stop-color="#FE860A"/>
</linearGradient>
<linearGradient id="paint8_linear_19_49" x1="17.983" y1="23.849" x2="17.983" y2="31.6252" gradientUnits="userSpaceOnUse">
<stop stop-color="#FE7701" stop-opacity="0"/>
<stop offset="0.398" stop-color="#E05915" stop-opacity="0.398"/>
<stop offset="1" stop-color="#AC2538"/>
</linearGradient>
<linearGradient id="paint9_linear_19_49" x1="23.5362" y1="9.69287" x2="23.5362" y2="13.5779" gradientUnits="userSpaceOnUse">
<stop stop-color="#FE7701" stop-opacity="0"/>
<stop offset="0.398" stop-color="#E05915" stop-opacity="0.398"/>
<stop offset="1" stop-color="#AC2538"/>
</linearGradient>
<clipPath id="clip0_19_49">
<rect width="36" height="35" fill="white"/>
</clipPath>
</defs>
</svg>
