<svg width="18" height="18" viewBox="0 0 18 18" fill="none" xmlns="http://www.w3.org/2000/svg">
<path d="M9 0C4.041 0 0 4.041 0 9C0 13.959 4.041 18 9 18C13.959 18 18 13.959 18 9C18 4.041 13.959 0 9 0ZM12.915 12.213C12.789 12.429 12.564 12.546 12.33 12.546C12.213 12.546 12.096 12.519 11.988 12.447L9.198 10.782C8.505 10.368 7.992 9.459 7.992 8.658V4.968C7.992 4.599 8.298 4.293 8.667 4.293C9.036 4.293 9.342 4.599 9.342 4.968V8.658C9.342 8.982 9.612 9.459 9.891 9.621L12.681 11.286C13.005 11.475 13.113 11.889 12.915 12.213Z" fill="#23AA49"/>
</svg>
