<svg width="24" height="24" viewBox="0 0 24 24" fill="none" xmlns="http://www.w3.org/2000/svg">
<g clip-path="url(#clip0_16_1587)">
<path d="M21.75 21H8.21115C7.53364 21 6.89868 20.6997 6.4687 20.1745L0.169148 12.4746C-0.0564639 12.1985 -0.0564639 11.8015 0.169148 11.5254L6.46945 3.8247C6.89861 3.30027 7.53364 3.00003 8.21115 3.00003H21.7499C22.9907 3.00003 23.9999 4.00933 23.9999 5.25001V18.75C24 19.9907 22.9907 21 21.75 21ZM22.5 5.25001C22.5 4.83618 22.1638 4.50004 21.75 4.50004H8.21115C7.98486 4.50004 7.77316 4.6004 7.63033 4.77471L1.71897 12L7.62958 19.2246C7.77316 19.3997 7.98479 19.5 8.21115 19.5H21.7499C22.1638 19.5 22.4999 19.1638 22.4999 18.7501C22.5 18.75 22.5 5.25001 22.5 5.25001Z" fill="#979899"/>
<path d="M16.7197 16.2803L13.5 13.0606L10.2803 16.2803L9.21973 15.2198L12.4395 12L9.21973 8.78031L10.2803 7.71978L13.5 10.9395L16.7197 7.71978L17.7803 8.78031L14.5605 12L17.7803 15.2198L16.7197 16.2803Z" fill="#979899"/>
</g>
<defs>
<clipPath id="clip0_16_1587">
<rect width="24" height="24" fill="white" transform="matrix(1 0 0 -1 0 24)"/>
</clipPath>
</defs>
</svg>
