<svg width="10" height="6" viewBox="0 0 10 6" fill="none" xmlns="http://www.w3.org/2000/svg">
<path d="M1.12145e-05 0.747173C-0.000534283 0.84592 0.0175598 0.943808 0.0532577 1.03522C0.0889557 1.12664 0.141556 1.20979 0.208039 1.2799L4.51205 5.78181C4.64646 5.92156 4.82827 6 5.01778 6C5.20729 6 5.3891 5.92156 5.5235 5.78181L9.82751 1.2799C9.94503 1.13636 10.0064 0.951726 9.99946 0.762889C9.99249 0.574051 9.91765 0.394921 9.7899 0.261293C9.66214 0.127666 9.49089 0.0493827 9.31035 0.042089C9.12981 0.0347948 8.9533 0.0990272 8.81607 0.221949L5.02136 4.19114L1.22665 0.221949C1.12675 0.116589 0.999222 0.0445799 0.860192 0.0150284C0.721163 -0.0145231 0.576878 -0.000289982 0.445582 0.0559282C0.314287 0.112146 0.201876 0.207824 0.122566 0.330864C0.0432556 0.453904 0.000606301 0.59878 1.12145e-05 0.747173Z" fill="#979899"/>
</svg>
