<svg width="31" height="31" viewBox="0 0 31 31" fill="none" xmlns="http://www.w3.org/2000/svg">
<g clip-path="url(#clip0_48_938)">
<path d="M16.6406 1.40541L20.741 9.7135L29.9095 11.0458C30.9528 11.1973 31.3694 12.4795 30.6145 13.2155L23.98 19.6823L25.5461 28.8138C25.7244 29.8529 24.6337 30.6453 23.7006 30.1547L15.4999 25.8434L7.29939 30.1547C6.36625 30.6453 5.27556 29.8529 5.45381 28.8138L7.01997 19.6823L0.385512 13.2154C-0.369444 12.4795 0.0471772 11.1974 1.09052 11.0457L10.259 9.71344L14.3593 1.40541C14.8259 0.459976 16.174 0.459976 16.6406 1.40541Z" fill="url(#paint0_linear_48_938)"/>
<path d="M20.7409 9.7135L16.6406 1.40541C16.4074 0.932724 15.9537 0.69635 15.5 0.69635V16.4257L20.7409 9.7135Z" fill="url(#paint1_linear_48_938)"/>
<path d="M23.98 19.6823L30.6144 13.2153C30.9869 12.8523 31.0737 12.3565 30.9413 11.9289L15.5 16.4256L23.98 19.6823Z" fill="url(#paint2_linear_48_938)"/>
<path d="M25.044 30.0549L15.5 16.4256V25.8434L23.7006 30.1547C24.1688 30.4009 24.6766 30.3239 25.044 30.0549Z" fill="url(#paint3_linear_48_938)"/>
<path d="M15.5 16.4256L7.01997 19.6823L5.45387 28.8138C5.36505 29.3314 5.59137 29.7878 5.95605 30.0549L15.5 16.4256Z" fill="url(#paint4_linear_48_938)"/>
<path d="M0.0585938 11.929L15.4999 16.4256L10.259 9.71344L1.09049 11.0458C0.561857 11.1225 0.194581 11.4898 0.0585938 11.929Z" fill="url(#paint5_linear_48_938)"/>
<path d="M7.01985 19.6823L0.385392 13.2154C0.0129701 12.8524 -0.0739143 12.3565 0.0585012 11.929L15.4998 16.4256L7.01985 19.6823Z" fill="url(#paint6_linear_48_938)"/>
</g>
<defs>
<linearGradient id="paint0_linear_48_938" x1="15.5005" y1="4.14924" x2="15.5005" y2="38.3542" gradientUnits="userSpaceOnUse">
<stop stop-color="#FFCF95"/>
<stop offset="0.427" stop-color="#FFC954"/>
<stop offset="1" stop-color="#FFC200"/>
</linearGradient>
<linearGradient id="paint1_linear_48_938" x1="23.5348" y1="8.56021" x2="13.1948" y2="8.56021" gradientUnits="userSpaceOnUse">
<stop stop-color="#FFC200" stop-opacity="0"/>
<stop offset="0.203" stop-color="#FFBB00" stop-opacity="0.203"/>
<stop offset="0.499" stop-color="#FFA700" stop-opacity="0.499"/>
<stop offset="0.852" stop-color="#FF8800" stop-opacity="0.852"/>
<stop offset="1" stop-color="#FF7800"/>
</linearGradient>
<linearGradient id="paint2_linear_48_938" x1="25.3013" y1="24.4025" x2="22.5628" y2="10.9171" gradientUnits="userSpaceOnUse">
<stop stop-color="#FFC200" stop-opacity="0"/>
<stop offset="0.203" stop-color="#FFBB00" stop-opacity="0.203"/>
<stop offset="0.499" stop-color="#FFA700" stop-opacity="0.499"/>
<stop offset="0.852" stop-color="#FF8800" stop-opacity="0.852"/>
<stop offset="1" stop-color="#FF7800"/>
</linearGradient>
<linearGradient id="paint3_linear_48_938" x1="12.0232" y1="31.4894" x2="22.7482" y2="20.7644" gradientUnits="userSpaceOnUse">
<stop stop-color="#FFC200" stop-opacity="0"/>
<stop offset="0.203" stop-color="#FFBB00" stop-opacity="0.203"/>
<stop offset="0.499" stop-color="#FFA700" stop-opacity="0.499"/>
<stop offset="0.852" stop-color="#FF8800" stop-opacity="0.852"/>
<stop offset="1" stop-color="#FF7800"/>
</linearGradient>
<linearGradient id="paint4_linear_48_938" x1="4.37507" y1="17.9265" x2="12.2803" y2="24.5401" gradientUnits="userSpaceOnUse">
<stop stop-color="#FFC200" stop-opacity="0"/>
<stop offset="0.203" stop-color="#FFBB00" stop-opacity="0.203"/>
<stop offset="0.499" stop-color="#FFA700" stop-opacity="0.499"/>
<stop offset="0.852" stop-color="#FF8800" stop-opacity="0.852"/>
<stop offset="1" stop-color="#FF7800"/>
</linearGradient>
<linearGradient id="paint5_linear_48_938" x1="10.301" y1="7.01736" x2="7.09761" y2="16.1109" gradientUnits="userSpaceOnUse">
<stop stop-color="#FFC200" stop-opacity="0"/>
<stop offset="0.203" stop-color="#FFBB00" stop-opacity="0.203"/>
<stop offset="0.499" stop-color="#FFA700" stop-opacity="0.499"/>
<stop offset="0.852" stop-color="#FF8800" stop-opacity="0.852"/>
<stop offset="1" stop-color="#FF7800"/>
</linearGradient>
<linearGradient id="paint6_linear_48_938" x1="22.3594" y1="7.96699" x2="-1.17541" y2="17.9906" gradientUnits="userSpaceOnUse">
<stop stop-color="#FFC200" stop-opacity="0"/>
<stop offset="0.203" stop-color="#FFBB00" stop-opacity="0.203"/>
<stop offset="0.499" stop-color="#FFA700" stop-opacity="0.499"/>
<stop offset="0.852" stop-color="#FF8800" stop-opacity="0.852"/>
<stop offset="1" stop-color="#FF7800"/>
</linearGradient>
<clipPath id="clip0_48_938">
<rect width="31" height="31" fill="white"/>
</clipPath>
</defs>
</svg>
