<svg width="24" height="24" viewBox="0 0 24 24" fill="none" xmlns="http://www.w3.org/2000/svg">
<rect width="24" height="24" fill="white"/>
<path d="M8.75 4.25V2.75C8.75 2.34 8.41 2 8 2C7.59 2 7.25 2.34 7.25 2.75V4.31C7.5 4.28 7.73 4.25 8 4.25H8.75Z" fill="#DBDBDB"/>
<path d="M16.75 4.31V2.75C16.75 2.34 16.41 2 16 2C15.59 2 15.25 2.34 15.25 2.75V4.25H16C16.27 4.25 16.5 4.28 16.75 4.31Z" fill="#DBDBDB"/>
<path d="M16.75 4.31V5.75C16.75 6.16 16.41 6.5 16 6.5C15.59 6.5 15.25 6.16 15.25 5.75V4.25H8.75V5.75C8.75 6.16 8.41 6.5 8 6.5C7.59 6.5 7.25 6.16 7.25 5.75V4.31C4.3 4.58 3 6.48 3 9.25V17.75C3 20.75 4.5 22.75 8 22.75H16C19.5 22.75 21 20.75 21 17.75V9.25C21 6.48 19.7 4.58 16.75 4.31ZM12 17.5H8C7.59 17.5 7.25 17.16 7.25 16.75C7.25 16.34 7.59 16 8 16H12C12.41 16 12.75 16.34 12.75 16.75C12.75 17.16 12.41 17.5 12 17.5ZM16 12.5H8C7.59 12.5 7.25 12.16 7.25 11.75C7.25 11.34 7.59 11 8 11H16C16.41 11 16.75 11.34 16.75 11.75C16.75 12.16 16.41 12.5 16 12.5Z" fill="#DBDBDB"/>
</svg>
