<svg width="41" height="34" viewBox="0 0 41 34" fill="none" xmlns="http://www.w3.org/2000/svg">
<path d="M30.0552 9.91815C28.7724 9.91806 27.4962 10.1029 26.266 10.4669C27.6394 12.9971 28.1582 15.9033 27.7451 18.7524C27.332 21.6015 26.0091 24.2407 23.9737 26.2767L16.7055 33.5449H26.985C28.7379 33.5449 30.4737 33.1997 32.0932 32.5289C33.7127 31.8581 35.1842 30.8749 36.4237 29.6354C37.6632 28.3959 38.6464 26.9244 39.3172 25.3049C39.9881 23.6855 40.3333 21.9497 40.3333 20.1968V9.91815H30.0552Z" fill="#009959"/>
<path d="M9.43748 7.40014L16.7041 0.133528L23.9707 7.40013C26.4736 9.903 27.8797 13.2976 27.8797 16.8372C27.8797 20.3768 26.4736 23.7714 23.9707 26.2743L16.7039 33.5411L9.43728 26.2745C6.93436 23.7716 5.52823 20.3769 5.52823 16.8372C5.52823 13.2976 6.93436 9.90286 9.43728 7.39994L9.43748 7.40014Z" fill="#6EBD6A"/>
<path d="M22.4989 18.8069L19.4621 20.0188C18.5549 20.3797 17.769 20.9912 17.1961 21.7819V19.354C17.1933 18.5181 17.4425 17.7008 17.9113 17.0088C18.3801 16.3168 19.0466 15.7821 19.8239 15.4747L22.8603 14.2629C22.9808 14.2147 23.0773 14.1206 23.1284 14.0013C23.1795 13.882 23.1812 13.7473 23.133 13.6268C23.0848 13.5063 22.9907 13.4098 22.8714 13.3587C22.7521 13.3076 22.6174 13.3059 22.4969 13.3541L19.4621 14.5645C18.5549 14.9254 17.7689 15.5369 17.1961 16.3276V13.8984C17.1932 13.0625 17.4424 12.2452 17.9112 11.5531C18.38 10.861 19.0466 10.3264 19.8239 10.0191C19.9444 9.97091 20.0408 9.87682 20.092 9.75752C20.1431 9.63823 20.1448 9.50351 20.0966 9.38299C20.0484 9.26248 19.9543 9.16604 19.835 9.1149C19.7157 9.06376 19.581 9.0621 19.4605 9.11029C18.5531 9.47113 17.7671 10.0826 17.1942 10.8734V5.3968C17.1942 5.33256 17.1815 5.26894 17.1569 5.20959C17.1324 5.15023 17.0963 5.0963 17.0509 5.05088C17.0055 5.00545 16.9515 4.96942 16.8922 4.94483C16.8328 4.92025 16.7692 4.90759 16.705 4.90759C16.6407 4.90759 16.5771 4.92025 16.5178 4.94483C16.4584 4.96942 16.4045 5.00545 16.3591 5.05088C16.3136 5.0963 16.2776 5.15023 16.253 5.20959C16.2284 5.26894 16.2158 5.33256 16.2158 5.3968V10.8734C15.6431 10.0825 14.8571 9.471 13.9498 9.11029C13.8293 9.0621 13.6945 9.06376 13.5752 9.1149C13.4559 9.16604 13.3619 9.26248 13.3137 9.38299C13.2655 9.50351 13.2671 9.63823 13.3183 9.75752C13.3694 9.87682 13.4658 9.97091 13.5864 10.0191C14.3637 10.3265 15.0302 10.8611 15.499 11.5531C15.9678 12.2452 16.217 13.0625 16.2141 13.8984V16.3276C15.6414 15.5368 14.8555 14.9252 13.9481 14.5645L10.9153 13.3527C10.7948 13.3045 10.6601 13.3062 10.5408 13.3573C10.4215 13.4084 10.3274 13.5049 10.2792 13.6254C10.231 13.7459 10.2327 13.8806 10.2838 13.9999C10.3349 14.1192 10.4314 14.2133 10.5519 14.2615L13.5892 15.4733C14.3668 15.7807 15.0337 16.3155 15.5026 17.0078C15.9716 17.7001 16.2208 18.5178 16.2177 19.354V21.7833C15.6449 20.9925 14.859 20.381 13.9517 20.0202L10.9153 18.8069C10.8556 18.7831 10.7918 18.7712 10.7276 18.772C10.6633 18.7728 10.5998 18.7862 10.5408 18.8115C10.4817 18.8369 10.4282 18.8736 10.3833 18.9196C10.3384 18.9656 10.303 19.0199 10.2792 19.0796C10.2553 19.1393 10.2434 19.2031 10.2442 19.2673C10.245 19.3316 10.2585 19.3951 10.2838 19.4542C10.3091 19.5132 10.3458 19.5667 10.3918 19.6116C10.4378 19.6565 10.4922 19.6919 10.5519 19.7157L13.5892 20.9276C14.3664 21.235 15.033 21.7696 15.5018 22.4616C15.9705 23.1537 16.2198 23.971 16.2169 24.8068V27.763C16.2169 27.8928 16.2684 28.0172 16.3602 28.109C16.4519 28.2007 16.5764 28.2522 16.7061 28.2522C16.8358 28.2522 16.9603 28.2007 17.052 28.109C17.1438 28.0172 17.1953 27.8928 17.1953 27.763V24.8068C17.1924 23.971 17.4417 23.1537 17.9104 22.4616C18.3792 21.7696 19.0458 21.235 19.823 20.9276L22.8595 19.7157C22.9192 19.6919 22.9735 19.6565 23.0195 19.6116C23.0655 19.5667 23.1022 19.5132 23.1276 19.4542C23.1529 19.3951 23.1663 19.3316 23.1671 19.2673C23.1679 19.2031 23.156 19.1393 23.1322 19.0796C23.1083 19.0199 23.0729 18.9656 23.0281 18.9196C22.9832 18.8736 22.9297 18.8369 22.8706 18.8115C22.8115 18.7862 22.7481 18.7728 22.6838 18.772C22.6195 18.7712 22.5557 18.7831 22.4961 18.8069H22.4989Z" fill="#009959"/>
<path d="M36.9564 13.2951C36.8646 13.2034 36.7402 13.1519 36.6105 13.1519C36.4808 13.1519 36.3563 13.2034 36.2645 13.2951L32.392 17.1679C32.5461 16.2036 32.4228 15.2154 32.0364 14.3185C31.9852 14.1993 31.8887 14.1052 31.7682 14.0571C31.6477 14.009 31.513 14.0107 31.3937 14.0619C31.2745 14.1131 31.1804 14.2096 31.1323 14.3301C31.0842 14.4506 31.0859 14.5853 31.1371 14.7046C31.4697 15.4716 31.5632 16.3211 31.4055 17.1422C31.2477 17.9632 30.8461 18.7176 30.2529 19.3068L28.6128 20.9474C28.5674 20.9929 28.5314 21.0468 28.5069 21.1062C28.4823 21.1656 28.4697 21.2292 28.4698 21.2935C28.4698 21.3577 28.4825 21.4213 28.5072 21.4807C28.5318 21.54 28.5679 21.5939 28.6134 21.6393C28.6588 21.6847 28.7128 21.7207 28.7722 21.7452C28.8315 21.7697 28.8952 21.7824 28.9594 21.7823C29.0237 21.7822 29.0873 21.7695 29.1466 21.7449C29.2059 21.7203 29.2598 21.6842 29.3052 21.6387L30.9467 19.997C31.536 19.4046 32.29 19.0036 33.1106 18.8461C33.9311 18.6887 34.7801 18.7822 35.5467 19.1144C35.6058 19.1401 35.6693 19.1538 35.7337 19.1548C35.7981 19.1558 35.8621 19.1441 35.9219 19.1204C35.9818 19.0966 36.0364 19.0612 36.0825 19.0163C36.1287 18.9714 36.1655 18.9179 36.1909 18.8587C36.2164 18.7995 36.2298 18.7359 36.2306 18.6715C36.2314 18.6071 36.2194 18.5432 36.1954 18.4834C36.1714 18.4237 36.1359 18.3692 36.0908 18.3232C36.0457 18.2772 35.992 18.2406 35.9327 18.2154C35.0361 17.8289 34.048 17.7056 33.0839 17.8598L36.9564 13.9867C37.048 13.8949 37.0995 13.7706 37.0995 13.6409C37.0995 13.5112 37.048 13.3869 36.9564 13.2951Z" fill="#6EBD6A"/>
</svg>
