<svg width="110" height="110" viewBox="0 0 110 110" fill="none" xmlns="http://www.w3.org/2000/svg">
<circle cx="55" cy="55" r="55" fill="white"/>
<path d="M68.4254 43.1969C66.2872 43.1968 64.1602 43.5048 62.11 44.1115C64.3989 48.3284 65.2636 53.1722 64.5751 57.9207C63.8867 62.6691 61.6819 67.0679 58.2895 70.4611L46.1758 82.5748H63.3083C66.2298 82.5748 69.1227 81.9994 71.8219 80.8815C74.5211 79.7635 76.9736 78.1248 79.0394 76.059C81.1053 73.9932 82.744 71.5407 83.862 68.8416C84.9801 66.1424 85.5555 63.2495 85.5555 60.328V43.1969H68.4254Z" fill="#009959"/>
<path d="M34.0625 39.0002L46.1735 26.8892L58.2845 39.0002C62.4559 43.1717 64.7994 48.8294 64.7994 54.7287C64.7994 60.628 62.4559 66.2857 58.2845 70.4572L46.1731 82.5685L34.0621 70.4575C29.8906 66.286 27.5471 60.6281 27.5471 54.7287C27.5471 48.8292 29.8906 43.1714 34.0621 38.9999L34.0625 39.0002Z" fill="#6EBD6A"/>
<path d="M55.8314 58.0115L50.7702 60.0312C49.2582 60.6328 47.9483 61.6519 46.9935 62.9697V58.9233C46.9888 57.5302 47.4041 56.168 48.1854 55.0146C48.9667 53.8612 50.0776 52.9702 51.3731 52.4578L56.4338 50.4381C56.6347 50.3578 56.7954 50.201 56.8806 50.0022C56.9659 49.8033 56.9686 49.5788 56.8883 49.3779C56.808 49.1771 56.6512 49.0164 56.4524 48.9311C56.2535 48.8459 56.029 48.8431 55.8281 48.9234L50.7702 50.9408C49.258 51.5422 47.9482 52.5614 46.9935 53.8793V49.8306C46.9886 48.4374 47.4039 47.0752 48.1853 45.9218C48.9666 44.7684 50.0775 43.8773 51.3731 43.3651C51.5739 43.2848 51.7347 43.128 51.8199 42.9292C51.9051 42.7303 51.9079 42.5058 51.8276 42.3049C51.7473 42.1041 51.5905 41.9434 51.3916 41.8581C51.1928 41.7729 50.9683 41.7701 50.7674 41.8504C49.2551 42.4518 47.9451 43.471 46.9903 44.7889V35.6613C46.9903 35.5542 46.9692 35.4482 46.9282 35.3493C46.8872 35.2503 46.8272 35.1605 46.7515 35.0848C46.6757 35.009 46.5859 34.949 46.4869 34.908C46.388 34.867 46.282 34.8459 46.1749 34.8459C46.0679 34.8459 45.9618 34.867 45.8629 34.908C45.764 34.949 45.6741 35.009 45.5984 35.0848C45.5227 35.1605 45.4626 35.2503 45.4216 35.3493C45.3807 35.4482 45.3596 35.5542 45.3596 35.6613V44.7889C44.4051 43.4708 43.0952 42.4516 41.5829 41.8504C41.382 41.7701 41.1575 41.7729 40.9587 41.8581C40.7599 41.9434 40.603 42.1041 40.5227 42.3049C40.4424 42.5058 40.4452 42.7303 40.5304 42.9292C40.6156 43.128 40.7764 43.2848 40.9772 43.3651C42.2727 43.8774 43.3837 44.7684 44.165 45.9218C44.9463 47.0753 45.3616 48.4375 45.3568 49.8306V53.8793C44.4023 52.5612 43.0924 51.542 41.5801 50.9408L36.5254 48.9211C36.3246 48.8408 36.1 48.8436 35.9012 48.9288C35.7024 49.014 35.5456 49.1747 35.4653 49.3756C35.3849 49.5765 35.3877 49.801 35.4729 49.9998C35.5582 50.1986 35.7189 50.3555 35.9198 50.4358L40.9819 52.4555C42.278 52.9678 43.3895 53.8591 44.171 55.0129C44.9526 56.1668 45.368 57.5296 45.3628 58.9233V62.972C44.4082 61.6542 43.0983 60.635 41.5862 60.0336L36.5254 58.0115C36.426 57.9717 36.3197 57.9519 36.2126 57.9533C36.1055 57.9546 35.9997 57.977 35.9012 58.0192C35.8028 58.0614 35.7136 58.1226 35.6388 58.1992C35.564 58.2759 35.505 58.3665 35.4653 58.466C35.4255 58.5654 35.4057 58.6718 35.407 58.7789C35.4083 58.886 35.4307 58.9918 35.4729 59.0902C35.5151 59.1887 35.5763 59.2778 35.653 59.3526C35.7297 59.4274 35.8203 59.4864 35.9198 59.5262L40.9819 61.5459C42.2774 62.0582 43.3883 62.9493 44.1696 64.1027C44.9508 65.2561 45.3662 66.6182 45.3614 68.0113V72.9383C45.3614 73.1546 45.4473 73.362 45.6003 73.5149C45.7532 73.6678 45.9605 73.7537 46.1768 73.7537C46.393 73.7537 46.6004 73.6678 46.7533 73.5149C46.9062 73.362 46.9921 73.1546 46.9921 72.9383V68.0113C46.9874 66.6182 47.4027 65.2561 48.184 64.1027C48.9653 62.9493 50.0762 62.0582 51.3717 61.5459L56.4324 59.5262C56.5319 59.4864 56.6225 59.4274 56.6992 59.3526C56.7759 59.2778 56.837 59.1887 56.8792 59.0902C56.9214 58.9918 56.9438 58.886 56.9452 58.7789C56.9465 58.6718 56.9267 58.5654 56.8869 58.466C56.8471 58.3665 56.7882 58.2759 56.7134 58.1992C56.6386 58.1226 56.5494 58.0614 56.451 58.0192C56.3525 57.977 56.2467 57.9546 56.1396 57.9533C56.0325 57.9519 55.9262 57.9717 55.8267 58.0115H55.8314Z" fill="#009959"/>
<path d="M79.9274 48.8251C79.7744 48.6723 79.567 48.5865 79.3508 48.5865C79.1346 48.5865 78.9272 48.6723 78.7742 48.8251L72.32 55.2798C72.5768 53.6727 72.3712 52.0256 71.7273 50.5308C71.642 50.3321 71.4812 50.1753 71.2803 50.0951C71.0795 50.0149 70.855 50.0178 70.6562 50.1031C70.4574 50.1884 70.3007 50.3492 70.2205 50.5501C70.1403 50.751 70.1432 50.9755 70.2285 51.1742C70.7828 52.4526 70.9387 53.8685 70.6758 55.2369C70.4129 56.6053 69.7434 57.8625 68.7548 58.8445L66.0213 61.579C65.9457 61.6547 65.8857 61.7447 65.8448 61.8436C65.8039 61.9426 65.7829 62.0486 65.783 62.1557C65.783 62.2628 65.8042 62.3688 65.8453 62.4677C65.8863 62.5666 65.9465 62.6564 66.0222 62.7321C66.098 62.8077 66.188 62.8677 66.2869 62.9086C66.3859 62.9495 66.4919 62.9705 66.599 62.9704C66.7061 62.9704 66.8121 62.9492 66.911 62.9081C67.0099 62.8671 67.0997 62.8069 67.1754 62.7312L69.9112 59.9949C70.8933 59.0076 72.15 58.3392 73.5176 58.0768C74.8852 57.8145 76.3001 57.9703 77.5778 58.524C77.6762 58.5667 77.7822 58.5896 77.8895 58.5913C77.9968 58.593 78.1034 58.5735 78.2032 58.5339C78.3029 58.4943 78.3939 58.4354 78.4709 58.3605C78.5478 58.2857 78.6092 58.1964 78.6516 58.0978C78.6939 57.9991 78.7164 57.8931 78.7177 57.7858C78.7189 57.6784 78.699 57.5719 78.659 57.4723C78.619 57.3727 78.5598 57.282 78.4846 57.2053C78.4095 57.1286 78.32 57.0676 78.2212 57.0256C76.7268 56.3814 75.08 56.1759 73.4731 56.433L79.9274 49.9778C80.08 49.8248 80.1658 49.6176 80.1658 49.4014C80.1658 49.1853 80.08 48.9781 79.9274 48.8251Z" fill="#6EBD6A"/>
</svg>
