<svg width="15" height="18" viewBox="0 0 15 18" fill="none" xmlns="http://www.w3.org/2000/svg">
<path d="M14.7887 5.88293C13.9014 1.82634 10.4958 0 7.50422 0C7.50422 0 7.50422 0 7.49577 0C4.51267 0 1.09858 1.81756 0.21125 5.87415C-0.777485 10.4049 1.89294 14.242 4.30985 16.6566C5.20563 17.5522 6.35493 18 7.50422 18C8.65352 18 9.80282 17.5522 10.6901 16.6566C13.1071 14.242 15.7775 10.4137 14.7887 5.88293ZM7.50422 10.282C6.0338 10.282 4.84225 9.0439 4.84225 7.5161C4.84225 5.98829 6.0338 4.75024 7.50422 4.75024C8.97465 4.75024 10.1662 5.98829 10.1662 7.5161C10.1662 9.0439 8.97465 10.282 7.50422 10.282Z" fill="#23AA49"/>
</svg>
