<svg width="35" height="34" viewBox="0 0 35 34" fill="none" xmlns="http://www.w3.org/2000/svg">
<g clip-path="url(#clip0_19_61)">
<path d="M35 12.2093V16.12C35 17.6607 34.685 19.17 34.09 20.566C33.4943 21.962 32.6186 23.2447 31.4973 24.334C28.9429 26.816 25.4779 28.21 21.8654 28.21H21.3184C20.0104 28.21 18.7291 28.4627 17.5439 28.9393C16.358 29.4167 15.2682 30.118 14.3431 31.0167C12.7029 32.61 10.5522 33.4073 8.40206 33.4073C6.25196 33.4073 4.10118 32.61 2.46098 31.0167C0.885294 29.486 0 27.41 0 25.2453V20.8887C0 19.806 0.22098 19.576 0.639608 19.4253C1.05824 19.274 1.67314 19.2027 2.46098 18.4373C3.35176 17.5713 4.04765 16.5513 4.52118 15.442C4.9549 14.424 5.20196 13.3287 5.23902 12.2093H35Z" fill="url(#paint0_linear_19_61)"/>
<path d="M35 12.2093V16.12C35 17.6607 34.685 19.17 34.09 20.566C33.4943 21.962 32.6186 23.2447 31.4973 24.334C28.9429 26.816 25.4779 28.21 21.8654 28.21H21.3184C20.0104 28.21 18.7291 28.4627 17.5439 28.9393C16.358 29.4167 15.2682 30.118 14.3431 31.0167C12.7029 32.61 10.5522 33.4073 8.40206 33.4073C6.25196 33.4073 4.10118 32.61 2.46098 31.0167C0.885294 29.486 0 27.41 0 25.2453V20.8887C0 19.806 0.22098 19.576 0.639608 19.4253C1.05824 19.274 1.67314 19.2027 2.46098 18.4373C3.35176 17.5713 4.04765 16.5513 4.52118 15.442C4.9549 14.424 5.20196 13.3287 5.23902 12.2093H35Z" fill="url(#paint1_linear_19_61)"/>
<path d="M0.0194092 25.7927C0.155292 27.7574 1.01862 29.6155 2.46097 31.0167C4.10116 32.61 6.25195 33.4073 8.40205 33.4073C10.5521 33.4073 12.7029 32.61 14.3431 31.0167C15.2682 30.118 16.358 29.4167 17.5439 28.9393C18.7291 28.4627 20.0104 28.21 21.3184 28.21H21.8654C24.6941 28.21 27.4322 27.3551 29.7136 25.7927H0.0194092Z" fill="url(#paint2_linear_19_61)"/>
<path d="M5.24465 7.99773C5.24465 10.4464 4.2433 12.7947 2.46091 14.5262C0.885226 16.0569 0 18.1329 0 20.2977V21.3341C0 23.4989 0.885226 25.5749 2.46091 27.1056C5.74213 30.2931 11.0621 30.2931 14.3433 27.1056C16.1932 25.3086 18.7021 24.2991 21.3182 24.2991H21.8651C25.4779 24.2991 28.9429 22.9049 31.4975 20.4232C33.7401 18.2447 35 15.29 35 12.2091C35 5.79353 29.6462 0.592666 23.0419 0.592666H12.8675C8.65749 0.592666 5.24465 3.908 5.24465 7.99773Z" fill="url(#paint3_linear_19_61)"/>
<path d="M30.36 19.1705C31.4285 18.1109 31.7232 16.5215 31.0946 15.1697C30.9743 14.9111 30.8467 14.6565 30.7118 14.4063C29.6645 12.4643 28.2255 10.8548 26.5281 9.7148C26.5139 9.72653 26.5 9.7386 26.4856 9.75027C24.5426 11.335 22.1221 12.3828 19.4939 12.803C19.909 14.3125 20.1196 15.8842 20.1196 17.489C20.1196 19.3223 19.8446 21.1126 19.3114 22.7997C19.9676 22.6889 20.6384 22.6323 21.3182 22.6323H21.8651C25.0455 22.6323 28.0355 21.4292 30.2844 19.2446C30.3098 19.2201 30.335 19.1953 30.36 19.1705Z" fill="url(#paint4_linear_19_61)"/>
<path d="M8.33571 27.8293C10.1465 27.8463 11.8516 27.1691 13.1302 25.9271C14.0745 25.0098 15.1534 24.2709 16.3234 23.727C17.0049 23.4102 17.5098 22.8222 17.723 22.1181C18.1656 20.6564 18.4038 19.0952 18.4038 17.4891C18.4038 15.942 18.1897 14.4304 17.7666 12.9861C17.4659 13.0023 17.1635 13.0111 16.8594 13.0111C13.2302 13.0111 9.81147 11.8531 7.23335 9.7504C7.107 9.64733 6.98423 9.54213 6.86338 9.4358C6.54515 11.7956 5.44615 13.9771 3.68846 15.6907C2.43759 16.9103 1.7157 18.5489 1.7157 20.2705V21.3341C1.7157 23.0906 2.42853 24.7407 3.72134 25.9725C4.95176 27.1449 6.61227 27.8131 8.33571 27.8293Z" fill="url(#paint5_linear_19_61)"/>
<path d="M23.0418 2.25933H12.8675C10.1898 2.25933 7.9237 3.99927 7.20181 6.3762C7.0522 6.86887 7.1876 7.40407 7.55771 7.771C9.75503 9.94953 13.1083 11.3444 16.8595 11.3444C21.9575 11.3444 26.3212 8.7684 28.0459 5.14967C28.408 4.38987 28.0544 3.49393 27.2699 3.14713C25.9803 2.57707 24.5486 2.25933 23.0418 2.25933Z" fill="url(#paint6_linear_19_61)"/>
<path d="M29.9971 4.91233C29.534 6.21653 28.7869 7.44027 27.781 8.53267C30.0165 10.1127 31.7685 12.3583 32.8833 14.9798C33.1472 14.0906 33.2843 13.1602 33.2843 12.2091C33.2844 9.3288 32.0175 6.73093 29.9971 4.91233Z" fill="url(#paint7_linear_19_61)"/>
<path d="M18.4038 17.4891C18.4038 19.0951 18.1657 20.6565 17.7231 22.1185C17.5096 22.8225 17.0045 23.4105 16.3231 23.7271C15.1536 24.2711 14.0748 25.0098 13.1305 25.9271C11.8513 27.1691 10.1466 27.8465 8.3355 27.8291C6.61227 27.8131 4.95148 27.1451 3.72099 25.9725C2.42874 24.7405 1.7157 23.0905 1.7157 21.3345V20.2705C1.7157 19.1171 2.03962 18.0005 2.63119 17.0225H18.3963C18.4018 17.1778 18.4038 17.3331 18.4038 17.4891Z" fill="url(#paint8_linear_19_61)"/>
<path d="M8.83037 23.9543C10.8264 23.9543 12.4444 22.3824 12.4444 20.4435C12.4444 18.5045 10.8264 16.9327 8.83037 16.9327C6.83438 16.9327 5.21631 18.5045 5.21631 20.4435C5.21631 22.3824 6.83438 23.9543 8.83037 23.9543Z" fill="url(#paint9_linear_19_61)"/>
<path d="M5.21704 20.5004C5.23166 21.3798 5.58406 22.2549 6.27486 22.926C7.68626 24.2971 9.97457 24.2971 11.3859 22.926C12.0767 22.2549 12.4292 21.3799 12.4437 20.5004H5.21704Z" fill="url(#paint10_linear_19_61)"/>
<path d="M31.4011 17.0225C31.3153 17.8145 30.9592 18.5765 30.3601 19.1705C30.3347 19.1951 30.31 19.2198 30.2846 19.2445C28.0356 21.4291 25.0455 22.6325 21.8653 22.6325H21.3184C20.6383 22.6325 19.9678 22.6891 19.311 22.7998C19.8443 21.1125 20.1195 19.3225 20.1195 17.4891C20.1195 17.3331 20.1174 17.1778 20.1126 17.0225H31.4011Z" fill="url(#paint11_linear_19_61)"/>
</g>
<defs>
<linearGradient id="paint0_linear_19_61" x1="11.6632" y1="9.8086" x2="20.1555" y2="25.2199" gradientUnits="userSpaceOnUse">
<stop stop-color="#FFDFCF"/>
<stop offset="1" stop-color="#FFA78F"/>
</linearGradient>
<linearGradient id="paint1_linear_19_61" x1="-1.54172" y1="5.1886" x2="31.772" y2="33.8278" gradientUnits="userSpaceOnUse">
<stop stop-color="#F89580" stop-opacity="0"/>
<stop offset="0.2608" stop-color="#F2917C" stop-opacity="0.262"/>
<stop offset="0.5874" stop-color="#E38670" stop-opacity="0.589"/>
<stop offset="0.9476" stop-color="#CA735D" stop-opacity="0.95"/>
<stop offset="0.9972" stop-color="#C5715A"/>
</linearGradient>
<linearGradient id="paint2_linear_19_61" x1="14.8665" y1="27.2149" x2="14.8665" y2="32.9211" gradientUnits="userSpaceOnUse">
<stop stop-color="#F89580" stop-opacity="0"/>
<stop offset="0.3584" stop-color="#E98A75" stop-opacity="0.359"/>
<stop offset="0.9972" stop-color="#C5715A"/>
</linearGradient>
<linearGradient id="paint3_linear_19_61" x1="4.39751" y1="3.32813" x2="26.1298" y2="25.6995" gradientUnits="userSpaceOnUse">
<stop stop-color="#FFDFCF"/>
<stop offset="1" stop-color="#FFA78F"/>
</linearGradient>
<linearGradient id="paint4_linear_19_61" x1="19.7328" y1="13.0265" x2="29.99" y2="23.5854" gradientUnits="userSpaceOnUse">
<stop stop-color="#FD4755"/>
<stop offset="1" stop-color="#D2024E"/>
</linearGradient>
<linearGradient id="paint5_linear_19_61" x1="3.96222" y1="12.8915" x2="18.3175" y2="27.6691" gradientUnits="userSpaceOnUse">
<stop stop-color="#FD4755"/>
<stop offset="1" stop-color="#D2024E"/>
</linearGradient>
<linearGradient id="paint6_linear_19_61" x1="12.5962" y1="0.710532" x2="25.202" y2="13.6871" gradientUnits="userSpaceOnUse">
<stop stop-color="#FD4755"/>
<stop offset="1" stop-color="#D2024E"/>
</linearGradient>
<linearGradient id="paint7_linear_19_61" x1="28.3088" y1="6.89887" x2="36.1097" y2="14.9293" gradientUnits="userSpaceOnUse">
<stop stop-color="#FD4755"/>
<stop offset="1" stop-color="#D2024E"/>
</linearGradient>
<linearGradient id="paint8_linear_19_61" x1="10.0598" y1="18.9778" x2="10.0598" y2="27.451" gradientUnits="userSpaceOnUse">
<stop stop-color="#C00148" stop-opacity="0"/>
<stop offset="0.3112" stop-color="#AA0E3F" stop-opacity="0.311"/>
<stop offset="0.9578" stop-color="#713028" stop-opacity="0.958"/>
<stop offset="1" stop-color="#6D3326"/>
</linearGradient>
<linearGradient id="paint9_linear_19_61" x1="6.64719" y1="18.3227" x2="11.6696" y2="23.4928" gradientUnits="userSpaceOnUse">
<stop stop-color="#EAF6FF"/>
<stop offset="1" stop-color="#B3DAFE"/>
</linearGradient>
<linearGradient id="paint10_linear_19_61" x1="8.83041" y1="20.9445" x2="8.83041" y2="23.6796" gradientUnits="userSpaceOnUse">
<stop stop-color="#D8ECFE" stop-opacity="0"/>
<stop offset="0.7867" stop-color="#9BD1FE" stop-opacity="0.787"/>
<stop offset="1" stop-color="#8AC9FE"/>
</linearGradient>
<linearGradient id="paint11_linear_19_61" x1="25.3561" y1="17.9778" x2="25.3561" y2="22.8788" gradientUnits="userSpaceOnUse">
<stop stop-color="#C00148" stop-opacity="0"/>
<stop offset="0.3112" stop-color="#AA0E3F" stop-opacity="0.311"/>
<stop offset="0.9578" stop-color="#713028" stop-opacity="0.958"/>
<stop offset="1" stop-color="#6D3326"/>
</linearGradient>
<clipPath id="clip0_19_61">
<rect width="35" height="34" fill="white"/>
</clipPath>
</defs>
</svg>
