<svg width="20" height="20" viewBox="0 0 20 20" fill="none" xmlns="http://www.w3.org/2000/svg">
<g clip-path="url(#clip0_59_376)">
<path d="M4.40488 12.2679V18.7531C4.36917 18.7544 4.33347 18.7549 4.29761 18.7549C4.2616 18.7549 4.22589 18.7544 4.19019 18.7531V12.2679C4.22589 12.2665 4.2616 12.2661 4.29761 12.2661C4.33347 12.2661 4.36917 12.2665 4.40488 12.2679Z" fill="url(#paint0_linear_59_376)"/>
<path d="M7.54202 15.5104C7.54202 15.5464 7.54156 15.5821 7.54019 15.6178H1.05505C1.05368 15.5821 1.05322 15.5464 1.05322 15.5104C1.05322 15.4745 1.05368 15.4388 1.05505 15.4031H7.54019C7.54156 15.4388 7.54202 15.4745 7.54202 15.5104Z" fill="url(#paint1_linear_59_376)"/>
<path d="M6.66635 13.2938L2.08093 17.8792C2.0286 17.8302 1.97778 17.7795 1.92896 17.7272L4.19031 15.4659L4.25317 15.4031L6.03525 13.6211L6.51437 13.1418C6.56671 13.1906 6.61752 13.2414 6.66635 13.2938Z" fill="url(#paint2_linear_59_376)"/>
<path d="M6.66635 17.7272C6.61752 17.7795 6.56671 17.8304 6.51437 17.8792L6.03525 17.3999L4.405 15.7698L1.92896 13.2938C1.97778 13.2414 2.0286 13.1906 2.08093 13.1418L6.66635 17.7272Z" fill="url(#paint3_linear_59_376)"/>
<path d="M4.29758 12.9539C2.88553 12.9539 1.74097 14.0985 1.74097 15.5106C1.74097 16.9225 2.88553 18.0672 4.29758 18.0672C5.70947 18.0672 6.85403 16.9225 6.85403 15.5106C6.85403 14.0985 5.70947 12.9539 4.29758 12.9539ZM4.29758 17.5334C3.18018 17.5334 2.27441 16.6278 2.27441 15.5104C2.27441 14.3932 3.18018 13.4874 4.29758 13.4874C5.41483 13.4874 6.32059 14.3932 6.32059 15.5104C6.32059 16.6278 5.41483 17.5334 4.29758 17.5334Z" fill="url(#paint4_linear_59_376)"/>
<path d="M4.29755 12.2661C2.50571 12.2661 1.05322 13.7187 1.05322 15.5104C1.05322 17.3022 2.50571 18.7547 4.29755 18.7547C6.08923 18.7547 7.54172 17.3022 7.54172 15.5104C7.54172 13.7187 6.08923 12.2661 4.29755 12.2661ZM4.29755 17.8194C3.02237 17.8194 1.98859 16.7857 1.98859 15.5104C1.98859 14.2352 3.02222 13.2016 4.29755 13.2016C5.57272 13.2016 6.60635 14.2352 6.60635 15.5104C6.60635 16.7856 5.57272 17.8194 4.29755 17.8194Z" fill="url(#paint5_radial_59_376)"/>
<path d="M5.75693 15.5106C5.75693 16.3165 5.10355 16.9698 4.29773 16.9698C3.49176 16.9698 2.83838 16.3165 2.83838 15.5106C2.83838 14.7046 3.49176 14.0512 4.29773 14.0512C5.10355 14.0512 5.75693 14.7046 5.75693 15.5106Z" fill="url(#paint6_linear_59_376)"/>
<path d="M5.71872 15.8412L4.85873 14.9812C4.71805 14.8322 4.51877 14.7389 4.29752 14.7389C3.87134 14.7389 3.52588 15.0844 3.52588 15.5104C3.52588 15.7317 3.61911 15.9309 3.76834 16.0716L4.62833 16.9316C5.16864 16.8065 5.59344 16.3814 5.71872 15.8412Z" fill="url(#paint7_linear_59_376)"/>
<path d="M5.069 15.5106C5.069 15.9366 4.72354 16.282 4.29752 16.282C3.87134 16.282 3.52588 15.9366 3.52588 15.5106C3.52588 15.0844 3.87134 14.7389 4.29752 14.7389C4.72354 14.7389 5.069 15.0844 5.069 15.5106Z" fill="url(#paint8_radial_59_376)"/>
<path d="M16.8629 12.2679V18.7531C16.8272 18.7544 16.7915 18.7549 16.7555 18.7549C16.7196 18.7549 16.6837 18.7544 16.6482 18.7531V12.2679C16.6839 12.2665 16.7196 12.2661 16.7555 12.2661C16.7915 12.2661 16.8272 12.2665 16.8629 12.2679Z" fill="url(#paint9_linear_59_376)"/>
<path d="M20 15.5104C20 15.5464 19.9994 15.5821 19.9982 15.6178H13.5131C13.5117 15.5821 13.5112 15.5464 13.5112 15.5104C13.5112 15.4745 13.5117 15.4388 13.5131 15.4031H19.9982C19.9994 15.4388 20 15.4745 20 15.5104Z" fill="url(#paint10_linear_59_376)"/>
<path d="M19.1244 13.2938L16.6483 15.7698L15.0181 17.3999L14.5389 17.8792C14.4866 17.8302 14.4358 17.7795 14.387 17.7272L16.4963 15.6178L16.6036 15.5104L16.6482 15.4659L16.711 15.4031L18.9724 13.1418C19.0247 13.1906 19.0755 13.2414 19.1244 13.2938Z" fill="url(#paint11_linear_59_376)"/>
<path d="M19.1244 17.7272C19.0755 17.7795 19.0247 17.8304 18.9724 17.8792L14.387 13.2938C14.4358 13.2414 14.4866 13.1906 14.5389 13.1418L15.0181 13.6211L16.7557 15.3586L19.1244 17.7272Z" fill="url(#paint12_linear_59_376)"/>
<path d="M16.7556 12.9539C15.3437 12.9539 14.199 14.0985 14.199 15.5106C14.199 16.9225 15.3437 18.0672 16.7556 18.0672C18.1676 18.0672 19.3122 16.9225 19.3122 15.5106C19.3122 14.0985 18.1676 12.9539 16.7556 12.9539ZM16.7556 17.5334C15.6383 17.5334 14.7326 16.6278 14.7326 15.5104C14.7326 14.3932 15.6383 13.4874 16.7556 13.4874C17.873 13.4874 18.7786 14.3932 18.7786 15.5104C18.7786 16.6278 17.873 17.5334 16.7556 17.5334Z" fill="url(#paint13_linear_59_376)"/>
<path d="M16.7556 12.2661C14.9639 12.2661 13.5112 13.7187 13.5112 15.5104C13.5112 17.3022 14.9639 18.7547 16.7556 18.7547C18.5474 18.7547 19.9999 17.3022 19.9999 15.5104C19.9999 13.7187 18.5474 12.2661 16.7556 12.2661ZM16.7556 17.8194C15.4804 17.8194 14.4466 16.7857 14.4466 15.5104C14.4466 14.2352 15.4804 13.2016 16.7556 13.2016C18.0309 13.2016 19.0645 14.2352 19.0645 15.5104C19.0645 16.7856 18.0307 17.8194 16.7556 17.8194Z" fill="url(#paint14_radial_59_376)"/>
<path d="M18.2149 15.5106C18.2149 16.3165 17.5616 16.9698 16.7556 16.9698C15.9496 16.9698 15.2964 16.3165 15.2964 15.5106C15.2964 14.7046 15.9496 14.0512 16.7556 14.0512C17.5616 14.0512 18.2149 14.7046 18.2149 15.5106Z" fill="url(#paint15_linear_59_376)"/>
<path d="M18.1767 15.8412L17.3167 14.9812C17.1761 14.8322 16.9768 14.7389 16.7555 14.7389C16.3293 14.7389 15.9839 15.0844 15.9839 15.5104C15.9839 15.7317 16.0771 15.9309 16.2263 16.0716L17.0863 16.9316C17.6265 16.8065 18.0515 16.3814 18.1767 15.8412Z" fill="url(#paint16_linear_59_376)"/>
<path d="M17.5272 15.5106C17.5272 15.9366 17.1817 16.282 16.7555 16.282C16.3293 16.282 15.9839 15.9366 15.9839 15.5106C15.9839 15.0844 16.3293 14.7389 16.7555 14.7389C17.1817 14.7389 17.5272 15.0844 17.5272 15.5106Z" fill="url(#paint17_radial_59_376)"/>
<path d="M13.7259 14.2702V15.2583C13.6132 15.3958 13.443 15.482 13.2537 15.482H5.52051V11.2872H7.05859V12.7708C7.05859 13.5991 7.72968 14.2702 8.55792 14.2702H13.7259Z" fill="url(#paint18_linear_59_376)"/>
<path d="M7.05872 15.482H0.999603C0.44754 15.482 0 15.0345 0 14.4826V13.0342C0 10.6279 1.95068 8.67722 4.35715 8.67722H9.24927C9.24927 9.27383 8.86139 9.80133 8.29193 9.9791L8.04886 10.0549C7.21039 10.3166 7.05872 11.0931 7.05872 11.9716V15.482Z" fill="url(#paint19_linear_59_376)"/>
<path d="M19.224 12.527C19.3647 12.8294 19.0404 13.1332 18.7438 12.9807C18.2036 12.7026 17.591 12.5456 16.942 12.5456C15.9414 12.5456 15.0274 12.9185 14.332 13.5333V10.7745H16.476C17.6931 10.7745 18.7424 11.492 19.224 12.527Z" fill="url(#paint20_linear_59_376)"/>
<path d="M15.8001 10.7745H14.332V13.5333C15.0274 12.9185 15.9414 12.5456 16.942 12.5456C17.1773 12.5456 17.4077 12.5665 17.6317 12.606L15.8001 10.7745Z" fill="url(#paint21_linear_59_376)"/>
<path d="M15.8719 11.2552C15.9667 11.7335 15.7721 12.2229 15.3743 12.5049C14.5766 13.0704 14.0139 13.9455 13.8613 14.955C13.844 15.07 13.796 15.1739 13.7261 15.2583C13.6133 15.3958 13.4432 15.482 13.2538 15.482H11.9548V6.98196C11.9548 6.48208 12.3563 6.06994 12.8562 6.06704C13.4351 6.06369 13.9745 6.26693 14.3958 6.61331C14.8143 6.95724 15.1168 7.4411 15.2283 8.00415L15.8719 11.2552Z" fill="url(#paint22_linear_59_376)"/>
<path d="M12.3223 6.18362H10.4923C10.2577 6.18362 10.0674 5.99335 10.0674 5.75851V5.51331C10.0674 5.27863 10.2577 5.08835 10.4923 5.08835H12.3223C12.557 5.08835 12.7473 5.27863 12.7473 5.51331V5.75851C12.7473 5.99335 12.557 6.18362 12.3223 6.18362Z" fill="url(#paint23_linear_59_376)"/>
<path d="M15.2282 8.00416C15.1167 7.44111 14.8143 6.9574 14.3957 6.61332C13.9744 6.2671 13.435 6.06385 12.8561 6.06705C12.6214 6.06843 12.4092 6.16074 12.2493 6.30921L15.5452 9.60511L15.2282 8.00416Z" fill="url(#paint24_linear_59_376)"/>
<path d="M14.9816 5.00671C14.9816 4.12384 14.6976 3.40805 14.3473 3.40805C13.9971 3.40805 13.7131 4.12384 13.7131 5.00671C13.7131 5.88974 13.9971 6.60538 14.3473 6.60538C14.6976 6.60538 14.9816 5.88974 14.9816 5.00671Z" fill="url(#paint25_linear_59_376)"/>
<path d="M14.2282 6.71967H13.3196C12.437 6.71967 11.7217 6.00418 11.7217 5.12177V4.89166C11.7217 4.00925 12.437 3.29391 13.3196 3.29391H14.2282C14.3885 3.29391 14.5182 3.42361 14.5182 3.58383V6.42975C14.5182 6.58981 14.3885 6.71967 14.2282 6.71967Z" fill="url(#paint26_linear_59_376)"/>
<path d="M4.50064 7.09244H8.66904C9.15259 7.09244 9.54459 7.48444 9.54459 7.96799V8.38867C9.54459 8.54797 9.41534 8.67722 9.25604 8.67722H3.91364C3.75433 8.67722 3.62524 8.54797 3.62524 8.38867V7.96799C3.62524 7.48444 4.01709 7.09244 4.50064 7.09244Z" fill="url(#paint27_linear_59_376)"/>
<path d="M6.84479 15.482C6.92719 15.3189 6.99875 15.1495 7.05872 14.9748V12.3538C6.51443 10.7661 5.00885 9.62494 3.23669 9.62494C3.22815 9.62494 3.2196 9.62494 3.21091 9.62494C1.57364 9.63516 0.224915 10.887 0.0309754 12.5128C0.0105286 12.6837 0 12.8578 0 13.0342V14.4826C0 15.0345 0.44754 15.482 0.999603 15.482H6.84479Z" fill="url(#paint28_linear_59_376)"/>
<path d="M4.2312 13.3536H1.93185C1.69153 13.3536 1.49683 13.1589 1.49683 12.9185C1.49683 12.6784 1.69153 12.4835 1.93185 12.4835H4.2312C4.47137 12.4835 4.66623 12.6782 4.66623 12.9185C4.66623 13.1589 4.47137 13.3536 4.2312 13.3536Z" fill="url(#paint29_linear_59_376)"/>
<path d="M4.2312 14.4566H1.93185C1.69153 14.4566 1.49683 14.2619 1.49683 14.0216C1.49683 13.7814 1.69153 13.5866 1.93185 13.5866H4.2312C4.47137 13.5866 4.66623 13.7814 4.66623 14.0216C4.66623 14.2619 4.47137 14.4566 4.2312 14.4566Z" fill="url(#paint30_linear_59_376)"/>
<path d="M6.64676 7.09244L1.41483 7.09167C1.24652 7.09167 1.10995 6.95511 1.11011 6.7868L1.11072 1.55487C1.11087 1.38641 1.24728 1.25 1.41574 1.25L6.64767 1.25076C6.81613 1.25076 6.95255 1.38733 6.95255 1.55563L6.95178 6.78772C6.95178 6.95602 6.81522 7.09244 6.64676 7.09244Z" fill="url(#paint31_linear_59_376)"/>
<path d="M3.15204 3.42407L6.20746 6.48026L6.26514 6.53137C6.33212 6.59073 6.43283 6.59073 6.49982 6.53152L6.49997 6.53137C6.56696 6.47202 6.66766 6.47202 6.73465 6.53137C6.79599 6.58585 6.88586 6.59027 6.95193 6.5448L6.95239 3.23257L4.97089 1.25046L3.09283 1.25031L3.09253 3.29147C3.09253 3.34213 3.1142 3.3905 3.15204 3.42407Z" fill="url(#paint32_linear_59_376)"/>
<path d="M4.97089 1.25061L4.97058 3.29178C4.97058 3.34244 4.94891 3.39066 4.91092 3.42422L4.85294 3.47549C4.7861 3.53485 4.68539 3.5347 4.61841 3.47549L4.61826 3.47534C4.55127 3.41599 4.45056 3.41599 4.38358 3.47534C4.31659 3.5347 4.21588 3.5347 4.1489 3.47534L4.14874 3.47519C4.08176 3.41583 3.98105 3.41599 3.91406 3.47519C3.84708 3.53455 3.74637 3.53455 3.67938 3.47519C3.6124 3.41583 3.51169 3.41583 3.4447 3.47504L3.44455 3.47519C3.37756 3.53455 3.27686 3.53455 3.20987 3.47519L3.15219 3.42392C3.1142 3.39035 3.09253 3.34213 3.09253 3.29147L3.09283 1.25031L4.97089 1.25061Z" fill="url(#paint33_linear_59_376)"/>
<path d="M1.11026 5.14877L1.11011 6.7868C1.10995 6.95526 1.24652 7.09168 1.41483 7.09183L6.64676 7.09244C6.81522 7.09259 6.95178 6.95602 6.95178 6.78772L6.95193 5.14954L1.11026 5.14877Z" fill="url(#paint34_linear_59_376)"/>
<path d="M1.58301 6.24756H2.87177V6.61911H1.58301V6.24756Z" fill="url(#paint35_linear_59_376)"/>
<path d="M1.58301 5.45959H3.62769V5.83115H1.58301V5.45959Z" fill="url(#paint36_linear_59_376)"/>
</g>
<defs>
<linearGradient id="paint0_linear_59_376" x1="4.19015" y1="15.5105" x2="4.40492" y2="15.5105" gradientUnits="userSpaceOnUse">
<stop stop-color="#575C55"/>
<stop offset="1" stop-color="#45425A"/>
</linearGradient>
<linearGradient id="paint1_linear_59_376" x1="1.05319" y1="15.5105" x2="7.54206" y2="15.5105" gradientUnits="userSpaceOnUse">
<stop stop-color="#575C55"/>
<stop offset="1" stop-color="#45425A"/>
</linearGradient>
<linearGradient id="paint2_linear_59_376" x1="1.92897" y1="15.5105" x2="6.66635" y2="15.5105" gradientUnits="userSpaceOnUse">
<stop stop-color="#575C55"/>
<stop offset="1" stop-color="#45425A"/>
</linearGradient>
<linearGradient id="paint3_linear_59_376" x1="1.92897" y1="15.5105" x2="6.66635" y2="15.5105" gradientUnits="userSpaceOnUse">
<stop stop-color="#575C55"/>
<stop offset="1" stop-color="#45425A"/>
</linearGradient>
<linearGradient id="paint4_linear_59_376" x1="4.00109" y1="15.2141" x2="7.83599" y2="19.049" gradientUnits="userSpaceOnUse">
<stop stop-color="#FFD459"/>
<stop offset="0.2296" stop-color="#FFD355"/>
<stop offset="0.4362" stop-color="#FFCF4A"/>
<stop offset="0.634" stop-color="#FFC838"/>
<stop offset="0.825" stop-color="#FFBF1F"/>
<stop offset="1" stop-color="#FFB400"/>
</linearGradient>
<radialGradient id="paint5_radial_59_376" cx="0" cy="0" r="1" gradientUnits="userSpaceOnUse" gradientTransform="translate(4.18777 15.2911) scale(3.24432)">
<stop stop-color="#45425A"/>
<stop offset="0.4759" stop-color="#424059"/>
<stop offset="0.7742" stop-color="#3A3B56"/>
<stop offset="1" stop-color="#2D3251"/>
</radialGradient>
<linearGradient id="paint6_linear_59_376" x1="2.83837" y1="15.5105" x2="5.75695" y2="15.5105" gradientUnits="userSpaceOnUse">
<stop stop-color="#C6E56F"/>
<stop offset="0.3371" stop-color="#C4E56F"/>
<stop offset="0.4953" stop-color="#BCE36E"/>
<stop offset="0.6162" stop-color="#AFE16D"/>
<stop offset="0.7182" stop-color="#9DDD6B"/>
<stop offset="0.8083" stop-color="#85D968"/>
<stop offset="0.8899" stop-color="#68D365"/>
<stop offset="0.9635" stop-color="#46CD61"/>
<stop offset="1" stop-color="#32C95F"/>
</linearGradient>
<linearGradient id="paint7_linear_59_376" x1="5.70246" y1="16.9154" x2="4.37859" y2="15.5915" gradientUnits="userSpaceOnUse">
<stop offset="0.0029" stop-color="#00E7B2" stop-opacity="0"/>
<stop offset="0.4308" stop-color="#1BC4B7" stop-opacity="0.427451"/>
<stop offset="1" stop-color="#3B9ABE"/>
</linearGradient>
<radialGradient id="paint8_radial_59_376" cx="0" cy="0" r="1" gradientUnits="userSpaceOnUse" gradientTransform="translate(4.29745 15.5105) scale(0.771596)">
<stop stop-color="#45425A"/>
<stop offset="0.4759" stop-color="#424059"/>
<stop offset="0.7742" stop-color="#3A3B56"/>
<stop offset="1" stop-color="#2D3251"/>
</radialGradient>
<linearGradient id="paint9_linear_59_376" x1="16.6481" y1="15.5105" x2="16.8629" y2="15.5105" gradientUnits="userSpaceOnUse">
<stop stop-color="#575C55"/>
<stop offset="1" stop-color="#45425A"/>
</linearGradient>
<linearGradient id="paint10_linear_59_376" x1="13.5112" y1="15.5105" x2="20" y2="15.5105" gradientUnits="userSpaceOnUse">
<stop stop-color="#575C55"/>
<stop offset="1" stop-color="#45425A"/>
</linearGradient>
<linearGradient id="paint11_linear_59_376" x1="14.3869" y1="15.5105" x2="19.1243" y2="15.5105" gradientUnits="userSpaceOnUse">
<stop stop-color="#575C55"/>
<stop offset="1" stop-color="#45425A"/>
</linearGradient>
<linearGradient id="paint12_linear_59_376" x1="14.3869" y1="15.5105" x2="19.1243" y2="15.5105" gradientUnits="userSpaceOnUse">
<stop stop-color="#575C55"/>
<stop offset="1" stop-color="#45425A"/>
</linearGradient>
<linearGradient id="paint13_linear_59_376" x1="16.4592" y1="15.2141" x2="20.2941" y2="19.049" gradientUnits="userSpaceOnUse">
<stop stop-color="#FFD459"/>
<stop offset="0.2296" stop-color="#FFD355"/>
<stop offset="0.4362" stop-color="#FFCF4A"/>
<stop offset="0.634" stop-color="#FFC838"/>
<stop offset="0.825" stop-color="#FFBF1F"/>
<stop offset="1" stop-color="#FFB400"/>
</linearGradient>
<radialGradient id="paint14_radial_59_376" cx="0" cy="0" r="1" gradientUnits="userSpaceOnUse" gradientTransform="translate(16.6459 15.2911) scale(3.24432)">
<stop stop-color="#45425A"/>
<stop offset="0.4759" stop-color="#424059"/>
<stop offset="0.7742" stop-color="#3A3B56"/>
<stop offset="1" stop-color="#2D3251"/>
</radialGradient>
<linearGradient id="paint15_linear_59_376" x1="15.2963" y1="15.5105" x2="18.2149" y2="15.5105" gradientUnits="userSpaceOnUse">
<stop stop-color="#C6E56F"/>
<stop offset="0.3371" stop-color="#C4E56F"/>
<stop offset="0.4953" stop-color="#BCE36E"/>
<stop offset="0.6162" stop-color="#AFE16D"/>
<stop offset="0.7182" stop-color="#9DDD6B"/>
<stop offset="0.8083" stop-color="#85D968"/>
<stop offset="0.8899" stop-color="#68D365"/>
<stop offset="0.9635" stop-color="#46CD61"/>
<stop offset="1" stop-color="#32C95F"/>
</linearGradient>
<linearGradient id="paint16_linear_59_376" x1="18.1604" y1="16.9154" x2="16.8366" y2="15.5915" gradientUnits="userSpaceOnUse">
<stop offset="0.0029" stop-color="#00E7B2" stop-opacity="0"/>
<stop offset="0.4308" stop-color="#1BC4B7" stop-opacity="0.427451"/>
<stop offset="1" stop-color="#3B9ABE"/>
</linearGradient>
<radialGradient id="paint17_radial_59_376" cx="0" cy="0" r="1" gradientUnits="userSpaceOnUse" gradientTransform="translate(16.7556 15.5105) scale(0.771596)">
<stop stop-color="#45425A"/>
<stop offset="0.4759" stop-color="#424059"/>
<stop offset="0.7742" stop-color="#3A3B56"/>
<stop offset="1" stop-color="#2D3251"/>
</radialGradient>
<linearGradient id="paint18_linear_59_376" x1="11.2962" y1="12.4529" x2="7.53674" y2="14.3607" gradientUnits="userSpaceOnUse">
<stop stop-color="#FF6E3A"/>
<stop offset="0.1596" stop-color="#FF6440"/>
<stop offset="0.4266" stop-color="#FF4B52"/>
<stop offset="0.7662" stop-color="#FF216E"/>
<stop offset="1" stop-color="#FF0084"/>
</linearGradient>
<linearGradient id="paint19_linear_59_376" x1="2.13994" y1="9.30216" x2="8.28618" y2="15.4484" gradientUnits="userSpaceOnUse">
<stop stop-color="#FF6E3A"/>
<stop offset="0.1596" stop-color="#FF6440"/>
<stop offset="0.4266" stop-color="#FF4B52"/>
<stop offset="0.7662" stop-color="#FF216E"/>
<stop offset="1" stop-color="#FF0084"/>
</linearGradient>
<linearGradient id="paint20_linear_59_376" x1="16.7949" y1="11.7301" x2="16.7949" y2="13.1749" gradientUnits="userSpaceOnUse">
<stop stop-color="#FF6E3A"/>
<stop offset="0.1596" stop-color="#FF6440"/>
<stop offset="0.4266" stop-color="#FF4B52"/>
<stop offset="0.7662" stop-color="#FF216E"/>
<stop offset="1" stop-color="#FF0084"/>
</linearGradient>
<linearGradient id="paint21_linear_59_376" x1="16.6486" y1="13.7365" x2="14.5052" y2="11.5931" gradientUnits="userSpaceOnUse">
<stop stop-color="#E58200" stop-opacity="0"/>
<stop offset="0.2413" stop-color="#DA760F" stop-opacity="0.243137"/>
<stop offset="0.7044" stop-color="#BC5737" stop-opacity="0.705882"/>
<stop offset="1" stop-color="#A64153"/>
</linearGradient>
<linearGradient id="paint22_linear_59_376" x1="16.6129" y1="8.84416" x2="9.1555" y2="12.8525" gradientUnits="userSpaceOnUse">
<stop stop-color="#FF6E3A"/>
<stop offset="0.1596" stop-color="#FF6440"/>
<stop offset="0.4266" stop-color="#FF4B52"/>
<stop offset="0.7662" stop-color="#FF216E"/>
<stop offset="1" stop-color="#FF0084"/>
</linearGradient>
<linearGradient id="paint23_linear_59_376" x1="11.4073" y1="5.34465" x2="11.4073" y2="5.95057" gradientUnits="userSpaceOnUse">
<stop stop-color="#45425A"/>
<stop offset="0.4759" stop-color="#424059"/>
<stop offset="0.7742" stop-color="#3A3B56"/>
<stop offset="1" stop-color="#2D3251"/>
</linearGradient>
<linearGradient id="paint24_linear_59_376" x1="16.1044" y1="9.23507" x2="13.351" y2="6.4816" gradientUnits="userSpaceOnUse">
<stop stop-color="#E58200" stop-opacity="0"/>
<stop offset="0.2413" stop-color="#DA760F" stop-opacity="0.243137"/>
<stop offset="0.7044" stop-color="#BC5737" stop-opacity="0.705882"/>
<stop offset="1" stop-color="#A64153"/>
</linearGradient>
<linearGradient id="paint25_linear_59_376" x1="13.7132" y1="5.00674" x2="14.9816" y2="5.00674" gradientUnits="userSpaceOnUse">
<stop stop-color="#FFD459"/>
<stop offset="0.2296" stop-color="#FFD355"/>
<stop offset="0.4362" stop-color="#FFCF4A"/>
<stop offset="0.634" stop-color="#FFC838"/>
<stop offset="0.825" stop-color="#FFBF1F"/>
<stop offset="1" stop-color="#FFB400"/>
</linearGradient>
<linearGradient id="paint26_linear_59_376" x1="13.16" y1="4.57929" x2="14.1817" y2="7.58902" gradientUnits="userSpaceOnUse">
<stop stop-color="#FF6E3A"/>
<stop offset="0.1596" stop-color="#FF6440"/>
<stop offset="0.4266" stop-color="#FF4B52"/>
<stop offset="0.7662" stop-color="#FF216E"/>
<stop offset="1" stop-color="#FF0084"/>
</linearGradient>
<linearGradient id="paint27_linear_59_376" x1="6.58488" y1="7.58964" x2="6.58488" y2="8.36785" gradientUnits="userSpaceOnUse">
<stop stop-color="#45425A"/>
<stop offset="0.4759" stop-color="#424059"/>
<stop offset="0.7742" stop-color="#3A3B56"/>
<stop offset="1" stop-color="#2D3251"/>
</linearGradient>
<linearGradient id="paint28_linear_59_376" x1="3.45821" y1="13.3496" x2="1.49113" y2="9.10806" gradientUnits="userSpaceOnUse">
<stop stop-color="#E58200" stop-opacity="0"/>
<stop offset="0.2413" stop-color="#DA760F" stop-opacity="0.243137"/>
<stop offset="0.7044" stop-color="#BC5737" stop-opacity="0.705882"/>
<stop offset="1" stop-color="#A64153"/>
</linearGradient>
<linearGradient id="paint29_linear_59_376" x1="3.08148" y1="13.7109" x2="3.08148" y2="12.3423" gradientUnits="userSpaceOnUse">
<stop stop-color="#E58200" stop-opacity="0"/>
<stop offset="0.2413" stop-color="#DA760F" stop-opacity="0.243137"/>
<stop offset="0.7044" stop-color="#BC5737" stop-opacity="0.705882"/>
<stop offset="1" stop-color="#A64153"/>
</linearGradient>
<linearGradient id="paint30_linear_59_376" x1="3.08148" y1="14.814" x2="3.08148" y2="13.4454" gradientUnits="userSpaceOnUse">
<stop stop-color="#E58200" stop-opacity="0"/>
<stop offset="0.2413" stop-color="#DA760F" stop-opacity="0.243137"/>
<stop offset="0.7044" stop-color="#BC5737" stop-opacity="0.705882"/>
<stop offset="1" stop-color="#A64153"/>
</linearGradient>
<linearGradient id="paint31_linear_59_376" x1="3.8815" y1="4.17123" x2="8.95985" y2="4.17194" gradientUnits="userSpaceOnUse">
<stop stop-color="#FFD459"/>
<stop offset="0.2296" stop-color="#FFD355"/>
<stop offset="0.4362" stop-color="#FFCF4A"/>
<stop offset="0.634" stop-color="#FFC838"/>
<stop offset="0.825" stop-color="#FFBF1F"/>
<stop offset="1" stop-color="#FFB400"/>
</linearGradient>
<linearGradient id="paint32_linear_59_376" x1="6.147" y1="4.42359" x2="3.03947" y2="1.31519" gradientUnits="userSpaceOnUse">
<stop stop-color="#E58200" stop-opacity="0"/>
<stop offset="0.1923" stop-color="#DE7B09" stop-opacity="0.192157"/>
<stop offset="0.5014" stop-color="#CD6920" stop-opacity="0.501961"/>
<stop offset="0.8866" stop-color="#B04B46" stop-opacity="0.886275"/>
<stop offset="1" stop-color="#A64153"/>
</linearGradient>
<linearGradient id="paint33_linear_59_376" x1="3.47599" y1="1.33896" x2="4.9527" y2="3.87928" gradientUnits="userSpaceOnUse">
<stop stop-color="#FF6E3A"/>
<stop offset="0.1596" stop-color="#FF6440"/>
<stop offset="0.4266" stop-color="#FF4B52"/>
<stop offset="0.7662" stop-color="#FF216E"/>
<stop offset="1" stop-color="#FF0084"/>
</linearGradient>
<linearGradient id="paint34_linear_59_376" x1="4.03099" y1="6.17018" x2="4.0308" y2="7.5074" gradientUnits="userSpaceOnUse">
<stop stop-color="#FFE600" stop-opacity="0"/>
<stop offset="1" stop-color="#F59500"/>
</linearGradient>
<linearGradient id="paint35_linear_59_376" x1="1.58306" y1="6.43327" x2="2.87182" y2="6.43327" gradientUnits="userSpaceOnUse">
<stop stop-color="#45425A"/>
<stop offset="0.4759" stop-color="#424059"/>
<stop offset="0.7742" stop-color="#3A3B56"/>
<stop offset="1" stop-color="#2D3251"/>
</linearGradient>
<linearGradient id="paint36_linear_59_376" x1="1.58302" y1="5.64534" x2="3.62778" y2="5.64534" gradientUnits="userSpaceOnUse">
<stop stop-color="#45425A"/>
<stop offset="0.4759" stop-color="#424059"/>
<stop offset="0.7742" stop-color="#3A3B56"/>
<stop offset="1" stop-color="#2D3251"/>
</linearGradient>
<clipPath id="clip0_59_376">
<rect width="20" height="20" fill="white"/>
</clipPath>
</defs>
</svg>
