<svg width="18" height="19" viewBox="0 0 18 19" fill="none" xmlns="http://www.w3.org/2000/svg">
<path d="M8.1572 11.6725L6.4897 13.3399C6.13818 13.6915 5.57934 13.6915 5.2188 13.349C5.11965 13.2498 5.02051 13.1597 4.92136 13.0605C3.99297 12.1231 3.15472 11.1407 2.4066 10.1131C1.66749 9.08558 1.0726 8.05805 0.639957 7.03953C0.216323 6.01199 0 5.02952 0 4.09212C0 3.4792 0.108162 2.89333 0.324485 2.35252C0.540808 1.8027 0.883321 1.29794 1.36103 0.847267C1.9379 0.279418 2.56884 0 3.23584 0C3.48822 0 3.74059 0.0540809 3.96593 0.162243C4.20028 0.270404 4.40759 0.432647 4.56983 0.666997L6.66096 3.6144C6.8232 3.83974 6.94038 4.04705 7.0215 4.24535C7.10262 4.43463 7.14769 4.62391 7.14769 4.79517C7.14769 5.01149 7.08459 5.22782 6.9584 5.43513C6.84123 5.64244 6.66997 5.85876 6.45365 6.07508L5.76862 6.78715C5.66948 6.8863 5.62441 7.00347 5.62441 7.14769C5.62441 7.2198 5.63342 7.28289 5.65145 7.355C5.67849 7.4271 5.70553 7.48119 5.72356 7.53527C5.8858 7.83271 6.16522 8.22029 6.56181 8.68899C6.96742 9.15769 7.40006 9.63541 7.86876 10.1131C7.9589 10.2033 8.05805 10.2934 8.14818 10.3835C8.50872 10.7351 8.51774 11.3119 8.1572 11.6725Z" fill="#23AA49"/>
<path d="M18 14.719C18 14.9714 17.9549 15.2328 17.8648 15.4852C17.8378 15.5573 17.8107 15.6294 17.7747 15.7015C17.6214 16.026 17.4232 16.3324 17.1618 16.6209C16.7201 17.1076 16.2334 17.4591 15.6835 17.6844C15.6745 17.6844 15.6655 17.6935 15.6565 17.6935C15.1247 17.9098 14.5479 18.027 13.9259 18.027C13.0065 18.027 12.0241 17.8106 10.9875 17.369C9.95098 16.9273 8.91443 16.3324 7.88689 15.5843C7.53537 15.3229 7.18384 15.0615 6.85034 14.7821L9.79775 11.8347C10.0501 12.024 10.2755 12.1682 10.4647 12.2673C10.5098 12.2854 10.5639 12.3124 10.627 12.3395C10.6991 12.3665 10.7712 12.3755 10.8523 12.3755C11.0056 12.3755 11.1227 12.3214 11.2219 12.2223L11.9069 11.5463C12.1322 11.3209 12.3486 11.1497 12.5559 11.0415C12.7632 10.9153 12.9705 10.8522 13.1958 10.8522C13.3671 10.8522 13.5474 10.8883 13.7457 10.9694C13.9439 11.0505 14.1513 11.1677 14.3766 11.3209L17.3601 13.4391C17.5944 13.6013 17.7566 13.7906 17.8558 14.016C17.9459 14.2413 18 14.4666 18 14.719Z" fill="#23AA49"/>
</svg>
