<svg width="18" height="18" viewBox="0 0 18 18" fill="none" xmlns="http://www.w3.org/2000/svg">
<path d="M13.5 0H4.5C2.016 0 0 2.008 0 4.48424V9.86893V10.7694C0 13.2456 2.016 15.2536 4.5 15.2536H5.85C6.093 15.2536 6.417 15.4157 6.57 15.6138L7.92 17.4057C8.514 18.1981 9.486 18.1981 10.08 17.4057L11.43 15.6138C11.601 15.3887 11.871 15.2536 12.15 15.2536H13.5C15.984 15.2536 18 13.2456 18 10.7694V4.48424C18 2.008 15.984 0 13.5 0ZM5.4 9.0045C4.896 9.0045 4.5 8.5993 4.5 8.10405C4.5 7.6088 4.905 7.2036 5.4 7.2036C5.895 7.2036 6.3 7.6088 6.3 8.10405C6.3 8.5993 5.904 9.0045 5.4 9.0045ZM9 9.0045C8.496 9.0045 8.1 8.5993 8.1 8.10405C8.1 7.6088 8.505 7.2036 9 7.2036C9.495 7.2036 9.9 7.6088 9.9 8.10405C9.9 8.5993 9.504 9.0045 9 9.0045ZM12.6 9.0045C12.096 9.0045 11.7 8.5993 11.7 8.10405C11.7 7.6088 12.105 7.2036 12.6 7.2036C13.095 7.2036 13.5 7.6088 13.5 8.10405C13.5 8.5993 13.104 9.0045 12.6 9.0045Z" fill="#23AA49"/>
</svg>
