<svg width="18" height="18" viewBox="0 0 18 18" fill="none" xmlns="http://www.w3.org/2000/svg">
<g clip-path="url(#clip0_59_451)">
<path d="M16.6458 5.59378H1.35571V17.3644H16.6458V5.59378Z" fill="url(#paint0_linear_59_451)"/>
<path d="M1.35571 7.81036L10.9098 17.3645H16.6457V5.59372H1.35571V7.81036Z" fill="url(#paint1_linear_59_451)"/>
<path d="M14.2832 17.3645H6.80545L2.69495 13.254C2.514 13.1366 2.39355 12.933 2.39355 12.7021V9.39383C2.39355 9.0314 2.68866 8.73627 3.05112 8.73627H5.43619C5.66766 8.73627 5.87121 8.85671 5.98853 9.03766L5.97063 9.05186L14.2832 17.3645Z" fill="url(#paint2_linear_59_451)"/>
<path d="M5.43602 12.9742H3.05113C2.90073 12.9742 2.77881 12.8523 2.77881 12.7019V9.39407C2.77881 9.24367 2.90073 9.12175 3.05113 9.12175H5.43602C5.58642 9.12175 5.70834 9.24367 5.70834 9.39407V12.7019C5.70831 12.8522 5.58642 12.9742 5.43602 12.9742Z" fill="#503837"/>
<path d="M5.43601 13.3596H3.05108C2.68838 13.3596 2.39331 13.0646 2.39331 12.7019V9.39401C2.39331 9.0313 2.68838 8.73624 3.05108 8.73624H5.43598C5.79869 8.73624 6.09375 9.0313 6.09375 9.39401V12.7019C6.09379 13.0646 5.79869 13.3596 5.43601 13.3596ZM3.16425 12.5887H5.32285V9.50725H3.16425C3.16425 9.50721 3.16425 12.5887 3.16425 12.5887Z" fill="url(#paint3_linear_59_451)"/>
<path d="M16.6461 10.1008V17.3645H16.4114L12.301 13.2539C12.1195 13.1366 11.999 12.933 11.999 12.7021V9.3938C11.999 9.03137 12.2941 8.73624 12.6571 8.73624H15.0417C15.2732 8.73624 15.4767 8.85668 15.594 9.03763L15.6035 9.04501L15.5972 9.05187L16.6461 10.1008Z" fill="url(#paint4_linear_59_451)"/>
<path d="M15.0417 12.9742H12.6568C12.5064 12.9742 12.3845 12.8523 12.3845 12.7019V9.39407C12.3845 9.24367 12.5064 9.12175 12.6568 9.12175H15.0417C15.1921 9.12175 15.3141 9.24367 15.3141 9.39407V12.7019C15.3141 12.8522 15.1921 12.9742 15.0417 12.9742Z" fill="#503837"/>
<path d="M15.0417 13.3596H12.6568C12.2941 13.3596 11.999 13.0646 11.999 12.7019V9.39401C11.999 9.0313 12.2941 8.73624 12.6568 8.73624H15.0417C15.4044 8.73624 15.6995 9.0313 15.6995 9.39401V12.7019C15.6995 13.0646 15.4044 13.3596 15.0417 13.3596ZM12.77 12.5887H14.9286V9.50725H12.77V12.5887Z" fill="url(#paint5_linear_59_451)"/>
<path d="M7.40747 17.3642V9.01145C7.40747 8.64301 7.70612 8.34436 8.07456 8.34436H9.92687C10.2953 8.34436 10.594 8.64301 10.594 9.01145V17.3642H7.40747V17.3642Z" fill="url(#paint6_linear_59_451)"/>
<path d="M10.9885 17.3642H10.1994V9.23889C10.1994 8.9639 9.97447 8.73894 9.69947 8.73894H8.30198C8.02586 8.73894 7.80202 8.96278 7.80202 9.23889V17.3642H7.01294V8.7171C7.01294 8.29337 7.35645 7.94989 7.78015 7.94989H10.2213C10.645 7.94989 10.9885 8.29337 10.9885 8.7171V17.3642H10.9885V17.3642Z" fill="white"/>
<path d="M8.43519 11.8392C8.63388 11.8392 8.79495 11.6781 8.79495 11.4794C8.79495 11.2808 8.63388 11.1197 8.43519 11.1197C8.23651 11.1197 8.07544 11.2808 8.07544 11.4794C8.07544 11.6781 8.23651 11.8392 8.43519 11.8392Z" fill="white"/>
<path d="M17.1885 15.831V16.7924C17.1885 17.1082 16.9324 17.3642 16.6166 17.3642H1.38505C1.06924 17.3642 0.813232 17.1082 0.813232 16.7924V15.831C0.813232 15.5152 1.06924 15.2592 1.38505 15.2592H16.6166C16.9324 15.2592 17.1885 15.5152 17.1885 15.831Z" fill="url(#paint7_linear_59_451)"/>
<path d="M14.9207 0.984841C14.7505 0.764552 14.4878 0.635529 14.2093 0.635529H3.79065C3.51221 0.635529 3.24953 0.764517 3.07927 0.984841L0 4.96966L0.158836 6.09916H17.7883L18 4.96966L14.9207 0.984841Z" fill="url(#paint8_linear_59_451)"/>
<path d="M12.5534 0.984841C12.4513 0.764552 12.2936 0.635529 12.1265 0.635529H5.87342C5.70629 0.635529 5.54865 0.764517 5.44648 0.984841L3.59839 4.96963L3.7941 6.06387H14.1882L14.4016 4.96963L12.5534 0.984841Z" fill="url(#paint9_linear_59_451)"/>
<path d="M10.1841 0.984841C10.1501 0.764552 10.0975 0.635529 10.0418 0.635529H7.9581C7.90241 0.635529 7.84988 0.764517 7.81582 0.984841L7.19995 4.96966H10.8L10.1841 0.984841Z" fill="url(#paint10_linear_59_451)"/>
<path d="M1.8 7.81526C0.805887 7.81526 0 7.00937 0 6.01526V4.9696H3.6V6.01526C3.6 7.00941 2.79411 7.81526 1.8 7.81526Z" fill="url(#paint11_linear_59_451)"/>
<path d="M5.4001 7.81526C4.40598 7.81526 3.6001 7.00937 3.6001 6.01526V4.9696H7.2001V6.01526C7.2001 7.00941 6.39421 7.81526 5.4001 7.81526Z" fill="url(#paint12_linear_59_451)"/>
<path d="M8.99995 7.81526C8.00584 7.81526 7.19995 7.00937 7.19995 6.01526V4.9696H10.8V6.01526C10.8 7.00941 9.99406 7.81526 8.99995 7.81526Z" fill="url(#paint13_linear_59_451)"/>
<path d="M12.6 7.81526C11.6059 7.81526 10.8 7.00937 10.8 6.01526V4.9696H14.4V6.01526C14.4 7.00941 13.5942 7.81526 12.6 7.81526Z" fill="url(#paint14_linear_59_451)"/>
<path d="M16.1999 7.81526C15.2058 7.81526 14.3999 7.00937 14.3999 6.01526V4.9696H17.9999V6.01526C17.9999 7.00941 17.194 7.81526 16.1999 7.81526Z" fill="url(#paint15_linear_59_451)"/>
</g>
<defs>
<linearGradient id="paint0_linear_59_451" x1="9.00057" y1="11.5607" x2="9.00057" y2="19.8931" gradientUnits="userSpaceOnUse">
<stop stop-color="#A7F3CE"/>
<stop offset="1" stop-color="#61DB99"/>
</linearGradient>
<linearGradient id="paint1_linear_59_451" x1="9.83187" y1="11.7972" x2="8.28955" y2="2.3453" gradientUnits="userSpaceOnUse">
<stop stop-color="#61DB99" stop-opacity="0"/>
<stop offset="1" stop-color="#009E74"/>
</linearGradient>
<linearGradient id="paint2_linear_59_451" x1="8.36079" y1="15.1649" x2="1.83082" y2="8.63524" gradientUnits="userSpaceOnUse">
<stop stop-color="#61DB99" stop-opacity="0"/>
<stop offset="1" stop-color="#009E74"/>
</linearGradient>
<linearGradient id="paint3_linear_59_451" x1="5.17809" y1="11.7248" x2="8.87846" y2="14.4039" gradientUnits="userSpaceOnUse">
<stop stop-color="#FFB92D"/>
<stop offset="1" stop-color="#F59500"/>
</linearGradient>
<linearGradient id="paint4_linear_59_451" x1="17.7583" y1="14.9569" x2="12.6094" y2="9.80834" gradientUnits="userSpaceOnUse">
<stop stop-color="#61DB99" stop-opacity="0"/>
<stop offset="1" stop-color="#009E74"/>
</linearGradient>
<linearGradient id="paint5_linear_59_451" x1="14.7838" y1="11.725" x2="18.4839" y2="14.4041" gradientUnits="userSpaceOnUse">
<stop stop-color="#FFB92D"/>
<stop offset="1" stop-color="#F59500"/>
</linearGradient>
<linearGradient id="paint6_linear_59_451" x1="7.40732" y1="12.8544" x2="10.5937" y2="12.8544" gradientUnits="userSpaceOnUse">
<stop stop-color="#FF4C54"/>
<stop offset="1" stop-color="#BE3F45"/>
</linearGradient>
<linearGradient id="paint7_linear_59_451" x1="9.00065" y1="15.5711" x2="9.00065" y2="18.2502" gradientUnits="userSpaceOnUse">
<stop stop-color="#FFB92D"/>
<stop offset="1" stop-color="#F59500"/>
</linearGradient>
<linearGradient id="paint8_linear_59_451" x1="6.34939" y1="2.34694" x2="15.4526" y2="11.4502" gradientUnits="userSpaceOnUse">
<stop stop-color="#FF4C54"/>
<stop offset="1" stop-color="#BE3F45"/>
</linearGradient>
<linearGradient id="paint9_linear_59_451" x1="8.99974" y1="1.65343" x2="8.99974" y2="6.07827" gradientUnits="userSpaceOnUse">
<stop stop-color="white"/>
<stop offset="1" stop-color="#F2F2F2"/>
</linearGradient>
<linearGradient id="paint10_linear_59_451" x1="8.29816" y1="3.31631" x2="0.890789" y2="6.84917" gradientUnits="userSpaceOnUse">
<stop stop-color="#FF4C54"/>
<stop offset="1" stop-color="#BE3F45"/>
</linearGradient>
<linearGradient id="paint11_linear_59_451" x1="1.08309" y1="5.14865" x2="3.55754" y2="7.62307" gradientUnits="userSpaceOnUse">
<stop stop-color="#FF4C54"/>
<stop offset="1" stop-color="#BE3F45"/>
</linearGradient>
<linearGradient id="paint12_linear_59_451" x1="4.68314" y1="5.14866" x2="7.15755" y2="7.62308" gradientUnits="userSpaceOnUse">
<stop stop-color="white"/>
<stop offset="1" stop-color="#F2F2F2"/>
</linearGradient>
<linearGradient id="paint13_linear_59_451" x1="8.28291" y1="5.14866" x2="10.7573" y2="7.62308" gradientUnits="userSpaceOnUse">
<stop stop-color="#FF4C54"/>
<stop offset="1" stop-color="#BE3F45"/>
</linearGradient>
<linearGradient id="paint14_linear_59_451" x1="11.8829" y1="5.14866" x2="14.3574" y2="7.62308" gradientUnits="userSpaceOnUse">
<stop stop-color="white"/>
<stop offset="1" stop-color="#F2F2F2"/>
</linearGradient>
<linearGradient id="paint15_linear_59_451" x1="15.4827" y1="5.14866" x2="17.9571" y2="7.62308" gradientUnits="userSpaceOnUse">
<stop stop-color="#FF4C54"/>
<stop offset="1" stop-color="#BE3F45"/>
</linearGradient>
<clipPath id="clip0_59_451">
<rect width="18" height="18" fill="white"/>
</clipPath>
</defs>
</svg>
